<svg width="19" height="10" viewBox="0 0 19 10" fill="none" xmlns="http://www.w3.org/2000/svg">
<path d="M1.74991 0.624932C2.05171 0.624343 2.34419 0.729452 2.57657 0.922015L9.49991 6.70868L16.4362 1.12868C16.5683 1.02139 16.7203 0.941265 16.8835 0.892916C17.0467 0.844566 17.2178 0.828945 17.3871 0.84695C17.5563 0.864955 17.7203 0.916229 17.8697 0.997829C18.0191 1.07943 18.1508 1.18974 18.2574 1.32243C18.3647 1.45455 18.4448 1.60658 18.4932 1.76977C18.5415 1.93295 18.5571 2.10409 18.5391 2.27333C18.5211 2.44258 18.4699 2.6066 18.3883 2.75596C18.3067 2.90533 18.1963 3.03709 18.0637 3.14368L10.3137 9.38243C10.0825 9.57241 9.79263 9.67627 9.49345 9.67627C9.19427 9.67627 8.90436 9.57241 8.67324 9.38243L0.923243 2.9241C0.79245 2.81566 0.684334 2.68249 0.605087 2.53221C0.525841 2.38193 0.47702 2.21749 0.461422 2.04831C0.445824 1.87913 0.463757 1.70854 0.514189 1.5463C0.564621 1.38406 0.646563 1.23337 0.755323 1.10285C0.875519 0.954678 1.02705 0.834973 1.19901 0.752339C1.37098 0.669705 1.55912 0.626194 1.74991 0.624932Z" fill="#F7931E"/>
</svg>
