<svg width="22" height="22" fill="none" xmlns="http://www.w3.org/2000/svg"><g clip-path="url(#a)"><path d="M14.666 11v-.001a3.667 3.667 0 1 0-1.074 2.593 3.522 3.522 0 0 0 1.074-2.537v-.058V11Zm1.98 0A5.624 5.624 0 1 1 15 7.004a5.428 5.428 0 0 1 1.648 3.902v.1V11Zm1.547-5.872v.002a1.32 1.32 0 1 1-.387-.934c.235.23.38.551.38.906v.027-.001h.007Zm-7.187-3.154-1.095-.007a75.92 75.92 0 0 0-1.512 0c-.344.005-.805.02-1.382.043-.536.018-1.045.072-1.543.156l.067-.01c-.39.065-.735.157-1.066.279l.04-.013a3.774 3.774 0 0 0-2.083 2.066l-.01.025a5.477 5.477 0 0 0-.26.992l-.004.034c-.082.482-.13.969-.146 1.457l-.001.02a53.935 53.935 0 0 0-.043 1.381c-.005.344-.005.848 0 1.512l.007 1.095-.007 1.096a75.907 75.907 0 0 0 0 1.511c.005.344.02.805.043 1.383.018.536.071 1.045.156 1.543l-.01-.067c.065.39.156.735.278 1.066l-.012-.04a3.774 3.774 0 0 0 2.066 2.083l.024.01c.292.108.638.2.993.26l.034.004c.43.075.939.128 1.456.146h.019c.578.024 1.039.039 1.382.044.344.005.848.005 1.512 0l1.089-.022 1.095.007c.664.005 1.168.005 1.512 0 .344-.005.805-.02 1.382-.043a11.536 11.536 0 0 0 1.543-.156l-.067.01c.39-.065.735-.156 1.066-.278l-.04.012a3.775 3.775 0 0 0 2.083-2.066l.01-.024c.109-.292.2-.637.26-.993l.005-.034c.075-.43.128-.939.145-1.456l.001-.019a54.17 54.17 0 0 0 .043-1.382c.005-.344.005-.848 0-1.512l-.007-1.095.007-1.096c.005-.664.005-1.168 0-1.511-.005-.344-.019-.805-.043-1.383a11.536 11.536 0 0 0-.156-1.542l.01.066a5.729 5.729 0 0 0-.278-1.066l.013.04a3.774 3.774 0 0 0-2.067-2.083l-.024-.009a5.477 5.477 0 0 0-.993-.26l-.034-.005a10.78 10.78 0 0 0-1.456-.146h-.019a53.976 53.976 0 0 0-1.382-.044 75.907 75.907 0 0 0-1.512 0l-1.089.021ZM22 11c0 2.186-.025 3.7-.074 4.54a6.085 6.085 0 0 1-6.402 6.387l.014.001c-.84.05-2.354.074-4.54.074-2.187 0-3.7-.025-4.54-.074A6.088 6.088 0 0 1 .07 15.525v.015C.02 14.7-.005 13.186-.005 11c0-2.187.025-3.7.073-4.54A6.087 6.087 0 0 1 6.472.072h-.014c.84-.05 2.353-.074 4.54-.074s3.7.024 4.54.073a6.087 6.087 0 0 1 6.387 6.403l.001-.014c.05.84.074 2.353.074 4.54Z" fill="#fff"/></g><defs><clipPath id="a"><path fill="#fff" d="M0 0h22v22H0z"/></clipPath></defs></svg>