<svg width="24" height="24" fill="none" xmlns="http://www.w3.org/2000/svg"><path d="M17.843 2.06C16.356.73 14.27 0 12 0 9.73 0 7.643.73 6.156 2.06 4.33 3.679 3.391 6.105 3.391 9.13c0 6.548 7.54 14.244 7.878 14.557.21.209.47.313.73.313.262 0 .549-.104.731-.313.34-.313 7.878-8.009 7.878-14.557 0-3.026-.939-5.452-2.765-7.07ZM12 21.418a39.066 39.066 0 0 1-2.922-3.652c-2.348-3.339-3.6-6.313-3.6-8.635 0-6.521 4.983-7.043 6.522-7.043 6.052 0 6.521 5.4 6.521 7.043 0 4.592-4.669 10.253-6.521 12.287Zm0-16.904c-2.296 0-4.148 1.904-4.148 4.226s1.852 4.2 4.148 4.2c2.296 0 4.148-1.904 4.148-4.226s-1.852-4.2-4.148-4.2Zm0 6.6c-1.278 0-2.322-1.07-2.322-2.4 0-1.33 1.043-2.4 2.322-2.4 1.278 0 2.322 1.07 2.322 2.4 0 1.33-1.044 2.4-2.322 2.4Z" fill="#F7931E"/></svg>