<svg xmlns="http://www.w3.org/2000/svg" width="400" height="240"><g fill-rule="evenodd"><path d="m357.511 68.187-28.444.12-.254.905c-.154.55-.23 3.097-.193 6.483.106 9.704.055 22.577-.09 22.812-.077.124-.122.781-.101 1.46.022.678.064 3.034.095 5.234.075 5.464-.533 5.006 6.627 4.993 5.294-.01 7.487-.171 7.896-.579.094-.094.224-6.639.29-14.545.095-11.334.186-14.44.432-14.686.704-.705 29.139-.659 29.586.048.347.551.277 1.993-.125 2.567-.357.511-.416.513-12.585.594-6.724.044-12.305.159-12.401.256-.359.359 1.299 2.345 5.4 6.469 2.32 2.334 4.394 4.441 4.607 4.682.214.241.779.762 1.256 1.158.477.397.869.791.872.876.003.085.831.95 1.839 1.921 1.009.971 2.495 2.449 3.302 3.286.807.836 2.952 3.03 4.768 4.876 1.816 1.847 3.301 3.432 3.301 3.524 0 .091.395.49.877.885s1.481 1.353 2.221 2.129c1.584 1.662 1.523 1.606 2.905 2.67 1.379 1.062 2.934 1.388 6.123 1.283 3.12-.102 2.866.36 2.965-5.393l.085-4.912-4.346-4.297c-2.391-2.363-4.347-4.393-4.347-4.511 0-.118-.279-.364-.621-.547-.53-.284-1.488-1.624-1.257-1.76.042-.025.276-.198.519-.385.328-.252 1.6-.373 4.962-.472 2.487-.073 4.611-.223 4.721-.333.294-.295.255-26.255-.041-26.527-.425-.392-1.954-.406-30.844-.284m-344.649.378c-.207.207-.383.612-.39.9-.1 4.167.086 28.651.222 29.017.484 1.308 10.371 11.159 11.54 11.497 1.515.439 47.273.193 47.575-.255.291-.432.196-10.668-.101-10.966-.11-.109-8.807-.253-19.327-.319-11.269-.07-19.276-.212-19.488-.345-.753-.471-4.621-4.384-5.355-5.417l-.767-1.08-.02-4.922c-.019-4.974.027-5.294.94-6.538.022-.03 8.792-.111 19.488-.18l19.448-.125 2.401-2.493c4.86-5.045 5.95-6.083 7.104-6.763l1.178-.695.361.863c.31.743.36 3.481.36 19.636 0 15.832.054 18.845.341 19.238.332.455.885.468 22.389.539 26.897.089 25.119.202 27.203-1.717.883-.813 1.92-1.758 2.306-2.102.851-.756 6.879-7.133 7.106-7.516.223-.376.306-29.16.087-29.97l-.178-.657-6.558.056c-3.607.031-6.638.136-6.735.234-.433.434-.555 3.111-.571 12.547l-.016 10.084-.699 1.201c-1.313 2.254-4.886 5.67-6.201 5.929-1.249.245-20.554.28-21.907.04-1.802-.321-1.644 1.003-1.727-14.553-.068-12.859-.108-14.048-.5-14.765l-.427-.781H52.592c-35.455 0-39.39.038-39.73.378m127.834-.143c-.403.255-.553 9.617-.16 10.01.11.109 4.9.253 10.646.32l10.446.12.458.566c.441.544.459 1.153.459 15.169 0 15.841-.057 15.153 1.28 15.488 1.146.288 13.092 0 13.414-.323.247-.246.337-3.464.432-15.326.116-14.511.136-15.025.586-15.354.385-.281 2.246-.341 10.684-.344 6.014-.002 10.367-.097 10.579-.231.388-.246.554-9.016.187-9.91-.197-.481-58.254-.663-59.011-.185m61.546.546c-.349.66-.409 1.462-.392 5.222.012 2.443.029 11.151.038 19.352.019 16.34-.008 16.023 1.434 16.411 2.008.541 122.708.212 123.108-.335.894-1.222.361-11.178-.598-11.179l-21.804-.06-21.422-.06-.547-.547c-.688-.688-.916-13.931-.281-16.291.444-1.648-1.45-1.522 22.955-1.526 21.049-.003 21.546-.014 21.789-.467.355-.663.329-9.902-.03-10.689l-.279-.612h-29.479c-23.319 0-29.519.063-29.673.3-.107.165-.219 8.674-.25 18.908-.06 20.357-.016 19.756-1.42 19.44-.873-.197-1.637-.852-5.843-5.008-3.521-3.479-1.099-3.142-22.625-3.15-20.802-.008-19.851.071-20.201-1.683-.086-.427-.155-6.697-.155-13.935 0-12.998-.067-14.219-.796-14.683-.157-.1-3.172-.183-6.701-.185l-6.417-.004-.411.781m91.176 15.003c-5.424.047-8.126.155-8.343.335-.385.319-.462 8.737-.086 9.331.4.633 19.554.53 20.533-.11.811-.53 4.442-4.21 4.442-4.502 0-.104.165-.189.366-.189.201 0 .46-.246.574-.547.114-.301.549-.912.966-1.359.978-1.047 1.215-1.507 1.215-2.359v-.695l-5.822.013a2669.5 2669.5 0 0 0-13.845.082m86.774 35.037c2.817.169 8.697.185 8.442.023-.153-.097-2.386-.158-4.961-.135-2.575.022-4.141.073-3.481.112m-368.607.239c-.165.066-.29.409-.277.761l.024.64.165-.591c.096-.345.412-.66.757-.757.464-.129.488-.166.111-.169-.264-.003-.615.049-.78.116m377.812 3.329c.073 2.494.019 3.329-.233 3.635-.281.34-.277.381.032.279.4-.132.679-6.579.3-6.958-.107-.106-.151 1.263-.099 3.044m-378.064.845c-.033 1.895.043 2.865.24 3.062.223.223 42.427.274 188.775.228l188.488-.06-188.596-.12-188.595-.12-.132-2.882-.132-2.881-.048 2.773m1.121 12.413c-.291.372-.285.386.054.122.298-.233 5.458-.313 23.289-.362l22.906-.062-22.959-.059c-21.622-.055-22.979-.034-23.29.361m99.971-.248a5.3 5.3 0 0 0 1.32 0c.364-.055.067-.1-.66-.1-.726 0-1.023.045-.66.1m3.703.113c.286.138.573.482.638.764.2.874.165 20.354-.039 21.945-.137 1.068-.119 1.43.063 1.248.174-.173.276-4.026.315-11.876l.058-11.621-.532-.372c-.292-.205-.642-.366-.778-.357-.136.009-.012.13.275.269m23.068-.106c1.089.044 2.872.044 3.961 0 1.09-.045.198-.081-1.981-.081-2.178 0-3.07.036-1.98.081m-79.292.475c.264.267 1.541 1.582 2.838 2.922 2.633 2.722 3.262 3.217 3.723 2.932.173-.107 1.577-1.435 3.119-2.952 1.543-1.518 3.021-2.881 3.285-3.03.277-.157.343-.274.155-.278-.179-.004-1.773 1.404-3.542 3.13l-3.216 3.137-.69-.491c-.379-.27-1.756-1.606-3.061-2.97-1.304-1.363-2.533-2.569-2.731-2.681-.198-.112-.144.015.12.281m45.663 4.988c-5.537 5.518-5.954 5.821-6.767 4.922-.239-.264-.535-.48-.656-.48-.122 0 .113.282.521.625.846.712 1.674.653 2.363-.169.657-.783 9.799-9.85 10.165-10.082.186-.118.214-.212.064-.214-.148-.002-2.708 2.427-5.69 5.398m29.056-4.187c-1.018.667-1.85 1.268-1.85 1.334 0 .145.207.024 1.921-1.12.726-.485 1.536-1.002 1.801-1.148.264-.146.367-.269.229-.273-.139-.004-1.084.539-2.101 1.207m11.836-.577c.594.349 1.269.797 1.5.996.231.199.42.259.42.135 0-.244-2.395-1.77-2.772-1.766-.126.001.257.287.852.635m24.189-.378c-.231.134-.42.355-.42.49s.17.075.377-.132c.386-.386 31.396-.608 32.377-.232.452.174.563 5.546.131 6.353-.241.449-.629.464-12.109.464-11.742 0-11.862.005-12.016.492-.379 1.195-.443 1.189 12.264 1.189 8.266 0 11.89.079 12.002.261.29.469.107 6.071-.206 6.294-.201.143-.179.175.073.107.544-.148.794-5.881.283-6.482-.331-.39-1.217-.42-12.191-.42-6.508 0-11.886-.086-11.951-.192-.486-.785.153-.829 11.903-.812l11.628.017.415-.703c.631-1.067.646-6.176.019-6.633-.555-.406-31.886-.465-32.579-.061m34.826-.007c-.474.276-.678 23.576-.21 23.866.147.091.214-4.181.185-11.758-.046-11.724-.04-11.903.433-12.013.264-.061 1.993-.14 3.842-.177l3.361-.065-3.601-.046c-2.039-.025-3.779.058-4.01.193m9.832.059-.66.261v2.938c0 4.182-.386 3.968 7.008 3.88 5.363-.064 5.732-.04 5.862.37.076.241.193.385.259.319.747-.747-.366-.909-6.076-.886-7.249.03-6.884.239-6.653-3.796.129-2.251.226-2.739.585-2.931.266-.142 6.655-.206 16.709-.168l16.279.061.132 3.122.131 3.121.049-3.013c.033-2.082-.04-3.103-.24-3.302-.39-.39-32.395-.367-33.385.024m60.372-.024c-.209.21-.273 1.697-.235 5.463l.053 5.174.127-5.282.127-5.283 3.362-.071c1.848-.039 3.713-.007 4.144.071l.782.143-.062 11.451-.062 11.451-.721.143-.72.144.686.191c1.095.306 1.107.171 1.111-11.944l.004-11.47-.616-.235c-.917-.348-7.623-.303-7.98.054m48.632 2.773c-1.706 1.684-3.254 3.353-3.442 3.71-.83 1.583-.334 9.63.541 8.755.081-.081-.029-.216-.246-.3-.551-.211-.589-7.445-.045-8.455.192-.357 1.65-1.945 3.24-3.529l2.891-2.882 12.906-.124 12.906-.124-12.824-.056-12.825-.056-3.102 3.061m37.737-2.864c-.208.09-1.397 1.238-2.641 2.552-1.245 1.314-2.614 2.703-3.043 3.086-.43.384-.781.785-.781.891 0 .221 1.101-.854 4.202-4.102l2.161-2.264 13.053-.066c10.296-.052 13.136-.001 13.446.24.349.273.356.261.062-.114-.341-.435-25.476-.647-26.459-.223m-148.722 12.048c0 6.578.081 11.909.18 11.848.099-.061.18-5.393.18-11.848 0-6.455-.081-11.786-.18-11.847-.099-.062-.18 5.27-.18 11.847m140.086-11.798c.271.189.353.864.36 2.994.013 3.502-.188 3.817-2.378 3.72-5.567-.246-20.527.063-20.896.431-.548.548-.363 1.167.357 1.195.524.02.531.011.058-.076-.729-.134-.684-.745.076-1.034.367-.139 4.937-.234 11.295-.234h10.68l.589-.589c.915-.915.802-6.299-.137-6.554-.309-.084-.309-.065-.004.147m-103.148.404c-.078.204-.075.438.007.52.083.083.15-.039.15-.269 0-.345.139-.392.78-.266.581.114.689.089.421-.097-.528-.368-1.195-.313-1.358.112m-201.577.484c-.36.195-.771.596-.914.891-.219.452-.211.478.054.164.407-.482 1.436-1.189 1.731-1.189.127 0 1.864 1.647 3.86 3.661 1.996 2.014 3.894 3.869 4.218 4.122.323.254-.492-.616-1.813-1.932-1.32-1.316-2.675-2.712-3.011-3.102-.864-1.002-3.054-2.991-3.281-2.98-.105.006-.485.17-.844.365m42.939 2.207c1.446 1.419 2.841 2.738 3.101 2.93.26.192-.846-.97-2.456-2.581-1.611-1.612-3.006-2.93-3.1-2.93-.095 0 1.01 1.161 2.455 2.581m194.99-2.247c-.664.503-.646 21.236.019 21.837.514.466 28.956.62 30.157.164.778-.296.992-6.053.236-6.343-.586-.225-.748-.159-.28.113.665.388.626 5.616-.045 5.975-.708.379-29.599.341-29.979-.04-.428-.427-.414-21.157.015-21.513.166-.138.734-.295 1.26-.349l.958-.098-.961-.032c-.528-.018-1.149.11-1.38.286m16.604-.154c9.336.045 13.399.144 13.626.331.537.446.451 5.632-.098 5.952-.231.135-.307.248-.168.252.934.027 1.3-5.704.408-6.381-.34-.258-2.977-.309-13.746-.269l-13.325.051 13.303.064m-222.62 1.593c-.488.447-.887.933-.887 1.081 0 .147.395-.169.878-.704.511-.566 1.018-.918 1.213-.844.184.071.269.022.188-.109-.233-.377-.448-.289-1.392.576m173.903-.453c.33.189.708.343.84.343s-.03-.154-.36-.343c-.33-.189-.708-.343-.84-.343s.03.154.36.343m-122.329.841c-.09.284-.11.57-.044.636.066.066.194-.112.284-.396.09-.284.11-.571.044-.637-.066-.066-.194.113-.284.397m17.655-.333c.004.117.166.422.36.679 1.045 1.381.324 3.909-1.617 5.668-1.315 1.191-1.439 1.381-1.173 1.8.274.432.286.434.155.018-.107-.337.28-.856 1.543-2.066l1.684-1.616v-1.737c0-1.374-.1-1.865-.48-2.348-.264-.336-.477-.515-.472-.398M45.67 140.044c-.689.697-1.252 1.366-1.252 1.485 0 .12.233-.045.518-.367.285-.322.901-.991 1.369-1.486 1.291-1.366.791-1.077-.635.368m212.433-.464c.198.189.63.423.961.52.76.223.592.063-.481-.458-.609-.295-.741-.312-.48-.062m-119.039.684c-.159.159-.278.51-.265.78.02.412.051.395.19-.108.155-.56.295-.609 2.077-.736l1.911-.136-1.813-.044c-1.145-.028-1.918.062-2.1.244m-64.334 3.887c-2.373 2.386-3.896 4.101-3.886 4.376.013.399.039.392.223-.064.115-.284 1.891-2.186 3.946-4.227 3.21-3.186 3.994-4.042 3.678-4.015-.033.003-1.815 1.771-3.961 3.93m68.602-3.703c.549.347.658 3.671.146 4.452-.405.618-.217.818.292.31.468-.468.389-4.664-.092-4.848-.564-.216-.751-.17-.346.086m117.172.227c.33.27.708.492.841.492.256.002-.178-.33-.961-.735-.319-.165-.278-.083.12.243m2.521 1.222c.396.262.829.477.961.477.132.001-.114-.215-.546-.478-1.02-.622-1.353-.621-.415.001m-250.721 5.402c-.028 3.037.031 5.653.133 5.813.272.428 5.383 5.625 5.29 5.379-.044-.116-1.239-1.422-2.657-2.903l-2.576-2.693-.069-5.559-.069-5.559-.052 5.522m376.116-4.877c-.102.308-.664.319-22.061.433-.213.001-.686.237-1.051.524-1.386 1.09-.722 1.164 9.948 1.104l9.738-.055-9.884-.125c-5.436-.069-9.957-.198-10.045-.286-.66-.661 1.191-.802 12.054-.92 10.752-.116 12.175-.221 11.545-.851-.076-.077-.186.003-.244.176m-366.397.128a8.974 8.974 0 0 0 1.681.002c.498-.052.15-.095-.775-.096-.924-.001-1.332.041-.906.094m7.329.002c.495.052 1.305.052 1.8 0 .496-.052.09-.094-.9-.094s-1.395.042-.9.094m4.442-.001a7.673 7.673 0 0 0 1.56 0c.429-.054.078-.097-.78-.097-.859 0-1.21.043-.78.097m4.804-.004c.299.057.731.055.961-.005.229-.06-.015-.107-.543-.105-.529.003-.716.052-.418.11m209.901.038c0 .216-1.413.282-5.693.263-5.952-.025-6.338.04-6.303 1.075.005.14.148.004.318-.302l.309-.557 5.666.024c5.344.023 6.401-.094 5.847-.647-.079-.079-.144-.014-.144.144m16.513.273c1.019.622 1.353.621.414-.001-.396-.262-.828-.477-.96-.478-.132 0 .113.215.546.479m29.406.638c-.226.091-.287 1.058-.247 3.883l.053 3.761.071-3.601c.059-3.035.134-3.649.473-3.902.4-.299.221-.371-.35-.141m9.123.007c.232.06.61.06.841 0 .231-.061.042-.11-.42-.11-.463 0-.652.049-.421.11m3.125.007c.365.055.905.053 1.2-.004.296-.057-.003-.102-.663-.1-.66.002-.902.048-.537.104m-285.687 2.708c0 1.519.039 2.14.087 1.381a27.05 27.05 0 0 0 0-2.761c-.048-.759-.087-.138-.087 1.38m246.488-2.187c.33.273.762.498.96.5.316.003.124-.125-1.259-.84-.166-.085-.031.068.299.34m68.472.446c2.203.04 5.877.04 8.163 0 2.287-.039.484-.071-4.006-.072-4.49 0-6.36.033-4.157.072m14.89.044c3.082.181 2.953-.018 2.953 4.531 0 3.893-.196 4.736-1.252 5.4-.167.105-.426.429-.576.72-.21.408-.111.364.43-.19 1.733-1.773 1.758-1.86 1.758-6.093v-3.859l-.709-.366c-.501-.259-1.326-.354-2.821-.323l-2.113.042 2.33.138m35.185-.054c.298.057.784.057 1.081 0 .297-.057.054-.104-.54-.104-.595 0-.838.047-.541.104m-352.702.331c-.594.346.717 2.487 1.959 3.202.211.121.021-.149-.423-.601-2.581-2.629-2.644-2.602 6.38-2.681l7.632-.067-7.563-.049c-4.812-.032-7.717.04-7.985.196m236.262.221c1.019.621 1.353.621.414-.001-.396-.262-.828-.477-.96-.478-.132 0 .113.215.546.479m30.621-.302c1.956.041 5.089.041 6.963 0 1.873-.04.273-.073-3.557-.073-3.829 0-5.362.033-3.406.073m-168.142.453c0 .263.852 1.096 1.44 1.408.198.105.09-.058-.24-.362-.33-.304-.735-.719-.9-.922-.165-.202-.3-.258-.3-.124m-82.288 1.048c0 .595.047.838.104.541a3.38 3.38 0 0 0 0-1.081c-.057-.297-.104-.054-.104.54m9.826.541c.832.825 1.562 1.47 1.622 1.432.145-.092-2.698-2.921-2.942-2.927-.106-.003.488.669 1.32 1.495m249.629.456c-1.987 2.531-2.824 3.318-3.571 3.358-.566.03-.57.04-.066.137.795.153 3.784-2.815 5.189-5.152.48-.798-.162-.112-1.552 1.657m-168.46-1.545c.365.056.905.054 1.2-.003.295-.057-.003-.102-.663-.1-.661.002-.902.048-.537.103m131.334.548c.336.265.702.478.813.475.262-.007-.931-.942-1.211-.949-.117-.003.063.21.398.474m23.306 1.561c.001 1.057.044 1.459.094.894.051-.565.05-1.429-.001-1.921-.052-.491-.093-.029-.093 1.027m93.394-.24c.001.924.045 1.273.097.775a8.974 8.974 0 0 0-.002-1.681c-.053-.426-.096-.018-.095.906m-254.317-.337c.325.326.465.706.395 1.074-.06.313-.016.512.097.442.362-.224.219-1.212-.234-1.622-.637-.577-.852-.488-.258.106m140.673-.337c0 .136-.297.21-.66.165-.653-.081-.654-.08-.06.117.596.198 1.198-.05.884-.364-.09-.091-.164-.053-.164.082m-118.777.241c.643.167.339.812-1.417 3.004-2.385 2.978-2.381 3.009.656 6.193 2.028 2.124.927.707-1.53-1.973-1.128-1.229-.77-2.137 2.065-5.23 1.174-1.282 1.209-2.246.076-2.133-.154.015-.087.078.15.139m-8.714.287c0 .304.947.84 1.141.646.077-.077.021-.14-.123-.14-.145 0-.433-.17-.641-.377-.207-.208-.377-.265-.377-.129M49.8 151.981c0 2.575.036 3.628.079 2.341a84.982 84.982 0 0 0 0-4.682c-.043-1.288-.079-.234-.079 2.341m11.619 2.593c.041 3.262.149 6.006.24 6.099.215.219.073-10.976-.147-11.574-.092-.25-.134 2.214-.093 5.475m199.345-5.625c.247.221 1.661.871 1.661.763 0-.138-1.331-.852-1.589-.852-.094 0-.127.04-.072.089m-239.62.398c-.015.357 2.583 3.114 2.934 3.114.096 0-.432-.567-1.174-1.261-.742-.693-1.438-1.476-1.547-1.74-.135-.328-.203-.364-.213-.113m15.452.356c.843.843 1.6 1.077 3.478 1.077 1.846 0 2.801.576 2.187 1.316-.259.312-1.572.373-9.097.422l-8.794.057 8.741.066c7.882.06 8.785.027 9.184-.334 1.096-.993.238-1.61-2.471-1.778-1.884-.116-2.196-.203-2.798-.78-.855-.819-1.245-.861-.43-.046m34.096 5.279c0 3.301.034 4.685.075 3.075.042-1.61.042-4.311.001-6.002-.042-1.692-.076-.374-.076 2.927m62.583-5.548c-.153.184-.602.468-.998.633-.396.164-.672.346-.613.405.059.059.36-.026.668-.188.813-.428 1.747-1.184 1.463-1.184-.133 0-.368.15-.52.334m125.546 4.948-.118 5.402-4.081.129-4.082.129 3.992.051c5.009.064 4.557.656 4.474-5.862l-.068-5.251-.117 5.402m36.825-4.242c.084.242.152.485.152.54 0 .055 1.54.077 3.422.048l3.421-.053-3.241-.072c-2.73-.06-3.294-.137-3.574-.487-.312-.391-.323-.389-.18.024m-156.582.208c-.159.159-.278.51-.265.78.02.412.051.395.191-.108.294-1.062 3.63-1.028 4.805.05l.863.791-.828-.901c-.888-.966-4.011-1.368-4.766-.612m164.36.362c.299.057.731.055.961-.005.229-.06-.015-.107-.543-.104-.529.002-.716.052-.418.109m-199.728 3.252c-3.607 3.393-4.085 3.724-4.559 3.154-.164-.198-.523-.477-.798-.621l-.5-.262.478.537c1.113 1.253 1.719 1.147 3.364-.588 3.129-3.303 5.409-5.214 5.828-4.886.374.293.382.284.085-.096-.444-.565-.117-.796-3.898 2.762m-12.309-2.574c-.083.215-.151 2.157-.151 4.314 0 2.439-.093 3.968-.246 4.044-.135.067-.108.094.06.06.229-.046.337-1.123.427-4.243l.12-4.182.591.066c.325.036.865.306 1.199.6l.607.534-.476-.6c-.262-.33-.477-.615-.478-.632-.025-.308-1.534-.272-1.653.039m87.485.107c-.272.172-.375.792-.421 2.518l-.12 4.571c-.033 1.254.021 2.281.12 2.281.099-.001.18-1.921.18-4.269 0-3.475.07-4.367.374-4.802.414-.591.395-.633-.133-.299m1.26-.069c.231.06.609.06.84 0 .231-.06.042-.11-.42-.11-.462 0-.651.05-.42.11m7.339.014c2.815.039 7.353.039 10.084 0 2.731-.038.428-.07-5.118-.07s-7.781.032-4.966.07m78.883.183c.383.382 2.554 1.386 2.554 1.181 0-.066-.475-.323-1.054-.572-.58-.248-1.127-.569-1.215-.712-.088-.143-.27-.259-.404-.259s-.08.162.119.362m77.789-.204c.579 1.033.484 1.042-11.379 1.042h-11.243l-.504.708c-.606.852-.66 6.517-.063 6.637.169.034.196.007.06-.06-.424-.211-.314-5.641.128-6.271l.374-.534 10.37-.014c5.704-.007 10.791-.088 11.305-.18 1.091-.194 1.637-.825 1.126-1.3-.197-.183-.267-.195-.174-.028m34.584.154c1.134.829.091.911-11.468.895-10.843-.014-11.183-.001-11.426.454-.346.646-.315.917.049.431.272-.362 1.363-.407 11.345-.466 9.306-.056 11.129-.122 11.585-.424.631-.418.697-.851.16-1.057-.61-.234-.705-.169-.245.167m-284.609 1.069c0 .132.162.375.36.539.201.167.36.193.36.059 0-.132-.162-.375-.36-.539-.201-.167-.36-.193-.36-.059m294.357.448c0 .125-1.137 1.413-2.528 2.861-3.902 4.062-4.098 4.343-.751 1.072 3.021-2.952 3.695-3.746 3.419-4.022-.077-.077-.14-.037-.14.089m-292.677 1.14c.463.502 1.165 1.138 1.561 1.412.845.585.694.423-1.08-1.153-1.055-.938-1.152-.99-.481-.259m175.216-.328c1.02.622 1.353.621.415 0-.397-.263-.829-.478-.961-.478-.132-.001.114.215.546.478m-126.339.857c-.207.208-.377.481-.377.608s-.243.328-.54.448c-.368.147-.415.222-.149.232.215.009.68-.363 1.033-.825.667-.875.684-1.114.033-.463m128.914.343c.397.262.829.477.961.478.132 0-.114-.215-.546-.479-1.02-.621-1.353-.621-.415.001m81.809.24c0 .462.049.651.11.42.06-.231.06-.609 0-.84-.061-.231-.11-.042-.11.42m-216.606-.086c-.059.997.819 1.369 2.645 1.119l1.78-.243-1.944-.035c-1.761-.031-1.968-.085-2.204-.575-.144-.297-.268-.417-.277-.266m-30.928 1.167c.002.528.052.716.109.417s.055-.731-.005-.96c-.06-.23-.107.014-.104.543m167.712-.36c1.019.622 1.353.621.414-.001-.396-.262-.828-.477-.96-.477-.132-.001.114.215.546.478m73.938 1.56c-2.588 2.662-2.611 2.782-.061.311 1.184-1.147 2.102-2.119 2.04-2.159-.062-.04-.953.792-1.979 1.848m-218.149-.664c-.025.417.372.804 1.78 1.737.997.66 1.744 1.09 1.661.955-.083-.134-.838-.678-1.677-1.208-.957-.605-1.564-1.161-1.629-1.492l-.102-.528-.033.536m146.391.168c.574.339 1.102.616 1.172.616.31 0-1.076-.911-1.617-1.063-.357-.101-.176.08.445.447m-227.991 1.576c0 .595.047.838.104.541a3.38 3.38 0 0 0 0-1.081c-.057-.297-.104-.054-.104.54m230.3-.483c.514.262.979.432 1.033.378.131-.132-1.278-.855-1.665-.855-.167 0 .118.215.632.477m-131.773.261c-.348.274-.633.618-.633.766 0 .148.135.102.3-.102.165-.204.567-.549.894-.767.326-.217.476-.395.332-.395-.143 0-.545.224-.893.498m2.501.888c1.505 1.786 1.474 1.776 5.149 1.677l2.882-.078-3.215-.052-3.214-.052-1.436-1.5-1.436-1.501 1.27 1.506m7.914.542c.005.486.416 1.095.608.902.087-.087-.015-.405-.227-.707-.248-.354-.383-.423-.381-.195m69.301.053c.061.099 1.936.18 4.165.18s4.103-.081 4.164-.18c.062-.099-1.812-.18-4.164-.18-2.352 0-4.226.081-4.165.18m-201.177.12c4.126.037 10.879.037 15.006 0 4.126-.037.75-.067-7.503-.067-8.254 0-11.63.03-7.503.067m57.023-.015c.231.061.609.061.84 0 .231-.06.042-.109-.42-.109-.462 0-.652.049-.42.109m5.405.005c.298.057.73.055.96-.005.229-.06-.015-.107-.543-.104-.528.002-.716.051-.417.109m46.635.43c.802.592.874.6 5.029.551l4.215-.049-4.357-.131c-3.694-.111-4.428-.195-4.821-.551-.255-.231-.557-.42-.671-.42-.115 0 .158.27.605.6m71.609-.422c1.023.045 2.698.045 3.721 0 1.024-.045.187-.081-1.86-.081s-2.884.036-1.861.081m120.271.002c3.523.037 9.358.037 12.965 0 3.608-.037.726-.068-6.405-.068s-10.083.03-6.56.068m34.711 0c3.598.037 9.487.037 13.085 0 3.599-.037.654-.068-6.542-.068-7.197 0-10.141.031-6.543.068m-192.196.54c.053.198.358.38.678.405.459.035.48.016.101-.088-.264-.073-.569-.255-.678-.405-.131-.179-.166-.15-.101.088m-106.714.418c.83.047 2.127.047 2.881-.001.754-.047.075-.085-1.51-.085s-2.202.039-1.371.086" fill="#ce2c24"/><path d="M12.254 119.3c-.787.22-.871.702-.729 4.174l.12 2.937 188.57.06c146.432.046 188.649-.004 188.918-.228.386-.321.371-6.448-.017-6.836-.239-.238-376.008-.345-376.862-.107m.234 16.711c-.22.265-.26 1.244-.157 3.782.077 1.883.144 5.585.148 8.226l.008 4.802 1.087 1.201c.598.66 2.129 2.254 3.402 3.541l2.316 2.341H49.7l.02-1.14c.064-3.76-.055-13.621-.167-13.733-.073-.073-3.691-.164-8.04-.202-9.436-.083-9.202-.18-6.585 2.71 2.667 2.945 2.764 3.001 5.13 3.001 2.307 0 3.309.797 2.231 1.772-.408.369-1.27.4-9.362.338l-8.913-.069-1.499-1.499-1.499-1.499-.091-2.677c-.056-1.608.019-3.047.185-3.603l.278-.926h10.644c11.509 0 12.081-.038 12.38-.826.109-.285.843-1.116 1.632-1.846.789-.731 1.559-1.562 1.712-1.847.89-1.662 1.89-1.469 4.105.794.858.877 3.303 3.329 5.433 5.45 4.672 4.653 4.41 4.004 4.414 10.908.002 2.89.083 5.376.18 5.525.158.242 5.418.485 7.92.366l.78-.037.002-5.702c0-3.136.107-6.08.237-6.543.233-.83 8.043-8.883 8.615-8.883.131 0 .303-.207.383-.459.08-.252.535-.756 1.012-1.119 1.516-1.157 1.516-1.161 1.516 10.237 0 5.505.067 10.346.15 10.759l.15.75h3.912c5.183 0 4.671.469 4.675-4.287.005-5.52.225-5.658 3.752-2.351 1.148 1.076 2.623 2.46 3.279 3.077 1.505 1.415 1.288 1.511 5.453-2.408 4.261-4.009 4.089-4.071 4.182 1.507.037 2.205.172 4.113.301 4.241.137.138 1.897.206 4.296.167l4.064-.066.19-1.681c.364-3.202.101-21.954-.31-22.214-.455-.287-4.808-.3-5.257-.016-.515.326-10.11 9.914-10.11 10.102 0 .202-1.102.724-1.528.724-.167 0-1.162-.872-2.209-1.936-1.048-1.065-2.113-2.119-2.367-2.341-.255-.223-1.875-1.81-3.602-3.526l-3.139-3.122-7.203-.07c-8.778-.087-7.743-.373-11.315 3.13-1.635 1.604-3.107 2.999-3.27 3.099-.441.273-1.104-.254-3.705-2.943a248.837 248.837 0 0 0-2.823-2.886c-.645-.623-46.917-.713-47.431-.093m123.406.313c-3.872 2.372-3.841 2.323-3.841 6.146v2.58l.874.824c.48.454 1.004.825 1.163.825.443 0 1.084.817 1.084 1.381 0 .485-.656.983-2.806 2.127-.867.462-1.015 1.016-1.023 3.815-.011 3.461-.117 3.3 3.803 5.765.212.133.66.428.994.654.52.35 1.299.414 5.346.434l4.738.023.716-.676c.395-.372.717-.804.717-.96 0-.386 1.169-1.279 1.675-1.279.226 0 1.004.648 1.73 1.441l1.319 1.44h6.57l-.154-.66c-.084-.363-.282-.768-.439-.9-1.165-.98-5.179-5.739-5.179-6.141 0-.697.361-1.304 1.93-3.246 2.327-2.882 2.2-3.059-2.096-2.913-2.034.069-2.253.124-2.8.714-.526.568-.682.614-1.393.411-.44-.127-.826-.23-.858-.23-.032 0-.23-.405-.439-.9l-.381-.901 1.449-1.32c2.724-2.484 2.751-5.362.065-7.077-3.48-2.222-2.805-2.039-7.482-2.039-4.164 0-4.211.006-5.282.662m34.711-.052c-.441.441-.577 23.664-.142 24.352.254.402 7.219.549 7.608.161.11-.109.254-2.193.32-4.631.097-3.585.189-4.475.481-4.659.213-.135 5.153-.23 12.124-.234 6.471-.005 11.894-.09 12.052-.19.313-.199.497-5.802.206-6.272-.112-.182-3.736-.261-12.002-.261-12.707 0-12.643.006-12.264-1.189.154-.487.274-.492 12.016-.492 11.48 0 11.868-.015 12.109-.464.432-.807.321-6.179-.131-6.353-.981-.376-31.991-.154-32.377.232m35.037-.242c-.213.093-.236 4.079-.131 22.019l.011 1.867 3.902-.066 3.901-.066v-23.77l-3.721-.044c-2.047-.024-3.83.003-3.962.06m9.921.163c-.287.227-.417.955-.53 2.959-.221 3.916-.562 3.728 6.701 3.696 5.096-.022 5.744.019 5.942.375.123.219.24 4.023.259 8.48l.036 8.081h8.404l.12-8.212c.081-5.588.206-8.297.388-8.48.185-.184 2.049-.26 5.936-.244l5.667.025.136-.548c.075-.302.105-1.845.067-3.429l-.07-2.882-16.338-.061c-12.832-.049-16.42.003-16.718.24m60.227-.139c-.088.088-.16 2.404-.16 5.147 0 2.742-.103 5.259-.23 5.592l-.23.606-1.265-.376c-.696-.206-1.525-.58-1.843-.83-.318-.25-.688-.455-.822-.455-.261 0-2.84-1.174-4.193-1.909-1.044-.566-5.51-2.653-5.679-2.653-.104 0-.476-.202-.827-.45a4.574 4.574 0 0 0-1.401-.616c-.42-.09-.892-.32-1.05-.51-.157-.189-.41-.344-.563-.344-.152 0-1.462-.582-2.911-1.292-3.593-1.762-4.125-1.864-4.311-.825-.078.438-.112 5.712-.074 11.721l.069 10.924H258.703l.121-5.402c.066-2.971.2-5.527.299-5.679.224-.344 1.653.058 3.457.972.679.344 1.355.625 1.5.625.146 0 .266.104.266.231s.459.353 1.02.502c.561.15 1.183.408 1.381.574.198.166 1.116.651 2.041 1.078l2.881 1.332c3.344 1.545 6.04 2.827 6.362 3.027.198.122.63.341.961.486.33.145 1.279.583 2.11.974.839.394 1.8.676 2.161.635l.651-.075.062-11.436.062-11.436-.542-.146c-.741-.198-7.506-.191-7.706.008m48.642 2.782c-1.635 1.617-3.128 3.232-3.318 3.589-.556 1.044-.495 8.069.074 8.501.336.255 2.714.321 11.773.327 10.112.007 11.368.049 11.497.386.438 1.141.093 1.178-11.753 1.248-13.26.08-11.937-.352-11.937 3.897 0 2.358.064 2.853.38 2.974.209.08 6.173.146 13.253.146h12.874l2.774-2.821c3.96-4.028 3.733-3.537 3.733-8.063 0-5.028 1.48-4.482-12.157-4.482-11.485 0-11.673-.016-11.379-.941.227-.715.231-.715 11.75-.757 13.063-.047 11.79.358 11.775-3.745-.007-2.14-.087-2.8-.36-2.972-.202-.128-5.767-.223-13.178-.225l-12.828-.004-2.973 2.942m37.709-2.788c-.157.064-1.237 1.101-2.401 2.305a324.098 324.098 0 0 1-3.137 3.205l-1.021 1.016v4.055c0 2.834.087 4.142.288 4.343.216.216 3.101.289 11.505.289 11.153 0 11.977.039 11.977.568 0 .929-.698.99-12.182 1.061-13.036.081-11.635-.399-11.535 3.951l.067 2.943 13.206.065 13.205.064 2.822-2.909c4.164-4.292 3.78-3.481 3.78-8.009 0-2.698-.087-3.969-.288-4.169-.216-.216-3.121-.288-11.598-.288-12.337 0-12.92-.059-11.521-1.159.365-.287.838-.523 1.051-.524 22.044-.118 21.892-.114 22.122-.478.342-.542.297-5.844-.054-6.195-.285-.285-25.598-.414-26.286-.134m-74.143.765c-.526.042-1.094.191-1.26.329-.429.356-.443 21.086-.015 21.513.38.381 29.271.419 29.979.04.418-.223.465-.525.465-2.993 0-3.569 1.184-3.241-11.701-3.241-8.058 0-10.845-.073-11.06-.288-.484-.484-.4-8.502.091-8.69.209-.08 5.186-.146 11.061-.146 6.903 0 10.844-.088 11.144-.248.582-.311.715-5.488.154-5.954-.29-.24-26.296-.531-28.858-.322m-144.696 3.427.756.263v2.228c0 2.771-.093 2.872-2.634 2.881-2.547.009-2.648-.101-2.648-2.856 0-1.394.105-2.31.288-2.492.363-.363 3.218-.38 4.238-.024m152.49 5.154c-.34.896-.293 4.254.066 4.735.262.35.937.407 5.258.443 5.564.046 5.485.068 6.909-1.881a54.19 54.19 0 0 1 1.764-2.226c.603-.723 1.045-1.398.982-1.501-.063-.102-3.407-.186-7.43-.186h-7.314l-.235.616m-151.43 6.129c1.496 1.645 1.531 2.058.309 3.661-.663.869-1.037 1.001-3.573 1.261-2.108.216-2.322-.097-2.322-3.389 0-2.957.031-2.996 2.415-2.996h1.84l1.331 1.463" fill="#f7f7f7"/><path d="M0 120.048v120.048h400V0H0v120.048m45.258-53.691c15.45-.023 28.307-.04 28.572-.038.264.002 4.254-.008 8.867-.022 9.23-.028 9.811.041 10.905 1.286l.729.83-.033 13.273c-.037 14.77-.012 15.036 1.405 15.325.385.079 4.941.12 10.125.092l9.425-.052.834-.637c2.061-1.571 4.647-4.399 4.874-5.328.767-3.137.799-3.685.684-11.734-.064-4.49-.13-8.434-.148-8.764-.096-1.82.016-2.373.59-2.918.327-.31.596-.692.598-.849.008-.556.587-.616 5.493-.572 9.019.082 9.164.094 9.695.823.595.818.974.8 1.903-.088l.757-.722 29.361.007 29.362.008.717.604c.759.638 1.788.628 2.037-.021.188-.489 1.756-.85 2.485-.573.656.249 8.704.16 9.127-.101 1.474-.911 5.105 1.623 5.105 3.562 0 .66-.103 6.549-.229 13.085-.222 11.561-.216 11.918.246 13.091l.475 1.206 15.927.066c11.527.048 16.234-.011 17.038-.213 1.822-.459 5.518.332 5.807 1.242.08.25.248.454.374.454.125 0 .98.757 1.899 1.681.919.925 1.777 1.681 1.907 1.681.131 0 .353.216.494.48.141.264.372.48.512.48s.574.228.965.507c.392.278.775.443.852.365.271-.271.16-3.398-.14-3.95-.227-.417-.239-.743-.046-1.296.173-.495.258-5.567.258-15.357 0-15.739.01-15.87 1.24-16.558.987-.552 58.235-.497 60.369.058 1.563.406 1.626.405 2.238-.047 1.002-.741 59.214-.602 60.051.144 1.167 1.041 1.183 1.22 1.167 13.725-.008 6.449-.002 12.373.014 13.166l.028 1.44-1.26 1.009-1.26 1.009-1.93-.144c-1.061-.079-2.146-.223-2.41-.32-.283-.104-.761-.032-1.166.175l-.687.351.603.641c.332.352.641.85.687 1.105.052.291.377.541.864.668.429.111.78.296.78.412 0 .116.378.663.84 1.217.462.553.84 1.157.84 1.343 0 .185.129.337.285.337.157 0 .508.206.78.458.273.251.874.665 1.336.919.602.33.863.655.92 1.142.044.373.238.921.431 1.216.254.387.334 1.094.286 2.542-.036 1.104-.029 3.406.016 5.116.078 2.926.053 3.133-.425 3.519-.645.523-.637.61.076.789.549.138 1.074 6.573.653 8.01-.167.57-1.653 1.084-2.612.905-.494-.093-40.011-.134-87.816-.092-47.805.042-88.756.076-91 .076-2.245 0-46.921-.027-99.28-.059s-95.855.01-96.658.095c-2.136.225-2.478-.263-2.323-3.318.062-1.226.007-2.802-.122-3.502-.196-1.058-.17-1.352.154-1.748.388-.474 1.205-.476 183.857-.466 100.907.005 183.652-.062 183.878-.148.338-.13.285-.211-.29-.453-.47-.198-.919-.721-1.36-1.585a6.14 6.14 0 0 0-1.785-2.119c-1.209-.889-2.206-1.886-2.206-2.204 0-.108-.351-.378-.78-.599-.995-.513-2.988-2.616-3.44-3.632-.192-.429-.462-.78-.601-.78-.423 0-1.902-1.235-1.902-1.589 0-.183-.16-.521-.355-.752-.892-1.055-2.235-2.373-2.75-2.701-.312-.198-.859-.63-1.216-.961-.358-.33-.881-.758-1.164-.952-.283-.193-.625-.688-.76-1.099-.136-.411-.582-.995-.992-1.298-1.268-.937-3.311-2.945-3.453-3.394-.075-.235-.626-.714-1.225-1.065-1.156-.678-3.207-2.691-3.209-3.15-.001-.151-.541-.686-1.201-1.189-.66-.504-1.262-1.109-1.337-1.347-.075-.237-.329-.431-.564-.431-.579 0-1.071-.633-1.466-1.888-.322-1.02-.341-1.035-.723-.564-.352.434-.394 1.775-.406 12.833-.015 13.695.026 13.327-1.595 14.328-.45.279-.983.443-1.185.366-.372-.143-13.079-.627-15.054-.574-.594.016-27.929.066-60.744.111-32.815.046-60.405.131-61.31.19-.905.059-1.986.017-2.401-.092a28.919 28.919 0 0 0-1.396-.33c-1.683-.341-1.696-.446-1.663-13.887.016-6.629.09-12.648.163-13.374.369-3.651.346-3.658-11.338-3.769l-9.398-.089-.266.764c-.182.523-.269 4.943-.275 13.994-.008 12.741-.144 15.502-.791 16.15-.358.357-3.301.675-5.683.614-5.508-.142-6.15-.133-7.843.099l-1.721.236-.86-.941c-.473-.518-.861-1.064-.862-1.215-.043-7.432.056-22.699.157-24.283.179-2.789-.336-4.819-1.317-5.194-.406-.155-4.149-.221-10.25-.179-5.287.035-9.744-.017-9.906-.117-.532-.329-.578.44-.615 10.163l-.036 9.606-.794.664a23.05 23.05 0 0 0-1.561 1.467c-.883.925-2.521 2.54-3.048 3.005-.198.175-.792.82-1.32 1.435-2.42 2.813-4.387 4.522-5.687 4.942-.653.211-6.867.302-23.692.349-17.35.047-22.891.131-23.155.351-.601.499-2.074-.356-2.921-1.695-.444-.702-.72-27.498-.343-33.284.283-4.343-.107-4.664-2.688-2.207-.978.93-1.905 1.691-2.062 1.691-.156 0-.347.199-.425.443-.077.244-.577.795-1.111 1.224-.534.429-1.068 1.035-1.186 1.347-.119.312-.68.813-1.246 1.114l-1.03.546-18.488.076c-13.97.058-18.551.147-18.748.364-.819.903-1.117 5.296-.568 8.374.28 1.566 3.671 5.719 4.67 5.719.17 0 .369.156.442.346.301.785 1.866.852 19.847.854 20.567.002 19.432-.113 19.729 1.992.286 2.032.164 10.301-.164 11.113-.646 1.598.532 1.522-25.233 1.617-17.141.062-23.63.011-24.655-.197-1.405-.284-2.988-1.687-6.821-6.044-.369-.42-.788-.771-.93-.78-.272-.018-1.051-.904-2.283-2.598-.408-.561-.867-1.02-1.021-1.02-.454 0-1.645-1.663-1.868-2.608-.303-1.289-.323-30.11-.021-30.671.815-1.513 2.575-2.097 5.331-1.771.595.07 13.722.109 29.172.086m268.833 15.587c1.158.518 1.716 1.495 1.55 2.708-.142 1.039-.745 2.263-1.114 2.263-.24 0-3.122 2.846-3.122 3.082 0 .1-.433.604-.961 1.119-.528.516-.96 1.091-.96 1.277 0 .526-1.649 1.923-3.242 2.747l-1.44.745-9.484.064c-9.797.066-10.895-.021-11.169-.886-.081-.256-.296-.465-.478-.465-.572 0-.667.5-.181.953.258.24.708.74 1 1.112.447.568.596.63.938.384.795-.57 1.096-.606 1.787-.209 1.013.581 2.624.532 3.013-.092.34-.545 1.155-.447 1.624.194.327.447 10.647.293 12.288-.183.842-.245 1.207-.234 2.095.058.805.265 1.395.3 2.342.14 1.653-.279 8.197-.248 9.43.045 1.34.317 2.921.293 3.476-.053.36-.225.703-.229 1.497-.015.85.229 1.127.214 1.587-.085.495-.322.617-.322 1.107-.001.827.542 1.035-.533 1.203-6.21.188-6.325-.161-8.138-1.667-8.662-1.307-.455-12.132-.484-11.119-.03M59.699 134.726c.245.215.688.465.985.556.297.09.54.275.54.409 0 .135 1.103 1.352 2.45 2.705l2.45 2.46 2.652-2.634c3.043-3.021 4.364-3.898 5.501-3.651.839.182 1.672.226 3.274.174 8.069-.265 11.403.214 13.118 1.883 2.845 2.768 5.28 5.289 6.011 6.223 1.887 2.412 3.233 3.006 4.035 1.782.207-.317.536-.575.731-.575a.362.362 0 0 0 .355-.366c0-.201.261-.484.58-.629.319-.145.633-.467.697-.715.065-.248.283-.451.485-.451.201 0 .433-.211.515-.468.081-.258.359-.535.616-.617.258-.081.468-.252.468-.38 0-.311 1.599-1.897 1.913-1.897.136 0 .248-.136.248-.302 0-.419 2.636-3.059 3.054-3.059.188 0 .504-.162.702-.36.561-.561 5.207-.513 5.809.06.242.231.626.528.851.66.591.346.606 24.015.016 24.606-.466.466-9.123.688-9.933.254-.476-.254-.5-.467-.514-4.52-.01-2.788-.09-4.067-.233-3.713-.119.297-.375.54-.568.54-.194 0-.416.2-.493.444-.077.244-.409.566-.737.715-.327.149-.595.436-.595.637s-.092.365-.205.365c-.113 0-.497.27-.853.6-.356.33-.75.6-.875.6-.126 0-.228.114-.228.252 0 1.882-4.047 2.64-4.934.925-.197-.38-.653-.882-1.013-1.114-.361-.232-1.385-1.157-2.276-2.055-.892-.898-1.628-1.492-1.637-1.321-.009.172-.01 1.778-.002 3.57.021 4.492.425 4.168-5.304 4.26-6.33.102-5.596 1.542-5.599-10.977-.002-7.361-.079-10.346-.267-10.346-.302 0-3.458 3.107-3.458 3.405 0 .108-.11.196-.244.196s-.71.486-1.279 1.081c-.57.594-1.162 1.08-1.317 1.08a.28.28 0 0 0-.281.275c0 .358-1.481 1.88-1.833 1.883-.149.002-.33.227-.402.501a.974.974 0 0 1-.628.628c-.489.128-.498.255-.498 6.569v6.438l-.541.189c-.787.275-9.603.093-9.964-.207-.225-.186-.3-1.731-.3-6.196v-5.949l-2.15-2.125a201.351 201.351 0 0 0-2.761-2.691c-.336-.311-.611-.704-.611-.873 0-.169-.27-.485-.6-.701-.33-.216-.6-.541-.6-.722 0-.18-.27-.396-.601-.479-.33-.083-.607-.284-.616-.446-.058-1.07-4.306-3.592-4.306-2.557 0 .406-2.244 2.749-2.914 3.042-.378.166-.687.452-.687.636 0 1.22-1.276 1.361-12.269 1.361-5.666-.001-10.463.061-10.661.137-.527.202-.526 4.839.001 5.042.198.076.36.269.36.429 0 .16.243.518.54.795.297.278.855.837 1.241 1.244l.7.74h8.257c5.444 0 8.207-.082 8.109-.24-.081-.132-1.033-.242-2.115-.243l-1.966-.003-.961-1.084a187.962 187.962 0 0 0-2.46-2.699c-1.567-1.685-1.977-2.507-1.57-3.151.284-.452 17.649-.717 18.178-.278.406.337.243 15.886-.169 16.148-.494.314-30.853.237-31.461-.08-.685-.357-.771-.435-4.006-3.609l-2.761-2.709-.062-8.409c-.044-6.131-.142-8.566-.36-8.989-.238-.462-.238-.599.002-.68.165-.055.3-.233.3-.396 0-.162.195-.504.434-.76.621-.667 46.744-.738 47.5-.073m86.018.063c.153.184.65.404 1.103.49.454.085.963.351 1.132.59.169.24.55.513.848.607.297.094.54.259.54.366 0 .107.328.331.73.497 2.061.854 2.017 7.679-.05 7.679-.567 0-1.731 1.484-1.478 1.885.367.584.974.614 1.151.058.322-1.014 7.595-1.084 8.527-.082.276.297.402.54.279.54s-.286.243-.362.54c-.075.297-.601 1.027-1.168 1.621-2.153 2.256-2.774 3.194-2.483 3.747.393.747 1.764 2.255 2.049 2.255.136 0 .248.172.248.383 0 .21.213.438.474.506.261.069.603.482.761.919.158.436.539.908.847 1.048.307.141.559.448.559.683 0 .235.216.562.48.727.649.406.632 1.416-.027 1.625-1.808.574-8.743.126-8.967-.579-.485-1.529-2.219-2.018-2.694-.76-.517 1.372-.913 1.457-6.93 1.484-5.212.024-5.503.002-5.873-.455-.214-.264-.733-.556-1.154-.649-.421-.092-.9-.354-1.065-.581-.166-.227-.657-.558-1.092-.735-1.296-.527-1.49-1.211-1.486-5.224.002-1.955.09-3.689.195-3.855.4-.63 1.843-1.5 2.489-1.5.37 0 .674-.106.674-.237 0-.371-.793-1.203-1.146-1.203-.176 0-.692-.405-1.146-.9l-.827-.901-.002-3.552-.001-3.553.752-.409a8.632 8.632 0 0 0 1.356-.949c.332-.297.726-.54.875-.54.15 0 .46-.22.689-.487.229-.268.737-.551 1.128-.629.392-.079.835-.292.987-.474.403-.485 8.675-.482 9.078.004m107.224 1.131c.925.428 1.762.912 1.861 1.076.099.163.608.369 1.13.457.608.103 1 .316 1.087.591.09.283.459.473 1.082.557.52.07 1.234.353 1.587.631.352.277.826.504 1.051.504.226 0 .605.214.841.475.237.262.816.548 1.287.636.47.089 1.07.361 1.332.605.263.245.68.445.928.445.51 0 1.332.398 1.812.878.177.177.585.322.905.322.321 0 .793.21 1.05.467s.854.539 1.327.628c.473.089.963.352 1.087.586.14.261.645.486 1.314.587.711.106 1.087.282 1.087.508 0 .19.109.345.241.345.249 0 .354-3.205.248-7.59-.085-3.538-.217-3.455 5.499-3.45 4.897.004 4.921.009 5.169 1.152.138.634.229.73.451.474 1.095-1.266.044-1.191 16.639-1.192l15.318-.002.544.633c.576.669.597 6.838.025 7.454-.132.144-1.584.219-3.596.187l-3.374-.053.603.603c.739.739.448 1.553-1.093 3.063-.515.505-1.045 1.207-1.176 1.561-.865 2.316-1.883 2.553-10.648 2.473-2.477-.022-3.489.043-3.241.208.229.153 4.386.236 11.364.228 7.294-.008 11.106.072 11.306.238.378.314.294 6.721-.098 7.453-.143.267-.499.491-.792.498-.292.007-7.258.015-15.48.018l-14.948.006-.718-.678-.718-.677-.015-10.685c-.011-7.354-.09-10.498-.255-10.085-.149.376-.215 4.552-.175 11.167.035 5.813-.019 10.702-.12 10.865-.305.494-2.472.379-2.843-.151-.172-.246-.692-.53-1.154-.631-.462-.101-1.098-.386-1.413-.633-.315-.247-.807-.449-1.095-.449-.287 0-.754-.216-1.038-.48-.283-.264-.719-.48-.968-.48s-.767-.27-1.151-.6c-.383-.33-.967-.6-1.298-.601-.33 0-.914-.27-1.297-.6-.384-.33-.951-.6-1.261-.6-.309 0-.764-.201-1.01-.447s-.837-.521-1.314-.61c-.476-.09-1.024-.388-1.217-.663-.269-.385-.499-.464-.99-.341-.498.125-.754.032-1.157-.421-.284-.32-.93-.713-1.434-.875-.505-.161-.97-.431-1.035-.6-.065-.17-.539-.375-1.053-.458-.513-.082-1.023-.307-1.131-.501-.109-.194-.455-.383-.77-.419l-.572-.067.057 5.082c.075 6.684.547 6.082-4.772 6.082-2.361 0-4.464-.065-4.673-.145-.337-.13-.382-1.176-.4-9.184-.017-8.028-.057-8.951-.361-8.258l-.341.781h-5.502c-3.026 0-5.672.065-5.881.145-.336.129-.38 1.062-.38 8.026 0 6.844-.05 7.93-.377 8.258-.387.387-8.166.585-9.087.232-.336-.129-.38-1.073-.38-8.15 0-6.139-.07-8.048-.3-8.197-.165-.107-2.96-.228-6.211-.269l-5.91-.075-.149.555c-.082.305-.152 3.904-.156 7.998-.004 4.264-.104 7.597-.234 7.803-.321.508-9.324.536-9.932.031-.339-.282-.397-.891-.397-4.17v-3.84l-.541.145c-.297.079-5.861.146-12.365.148l-11.824.003v4.292c0 3.145-.081 4.359-.301 4.542-.354.294-8.955.477-9.236.197-.354-.354-.466-25.367-.116-25.867.384-.548 78.797-.712 79.454-.167.259.216.444.166.834-.224.347-.348.62-.439.887-.297a85.57 85.57 0 0 0 2.067.983m136.375 8.947v9.273l-1.741 1.673c-.957.921-1.741 1.745-1.741 1.833 0 .223-1.67 1.778-1.91 1.778-.107 0-.247.199-.311.444-.187.715-.99.756-14.823.756-15.806 0-14.408.327-14.408-3.364 0-3.045.002-3.044-2.7-.29-1.259 1.284-2.627 2.631-3.04 2.994l-.751.66h-13.628c-12.211 0-13.686-.04-14.187-.391-.799-.56-.713-7.336.1-7.965.482-.373.482-.375-.062-.92-.525-.525-.546-.698-.529-4.458.021-4.966-.257-4.393 4.51-9.289l2.247-2.307 13.785-.066c9.364-.044 13.937.016 14.26.189.436.233.476.522.494 3.547.01 1.811.078 3.131.151 2.933.072-.198.415-.64.761-.981.346-.341.945-1.017 1.332-1.501.386-.484.845-.88 1.02-.88.175 0 .321-.135.324-.3.003-.165.599-.894 1.326-1.62l1.32-1.321 13.62-.12c9.827-.087 13.754-.045 14.101.149.467.263.48.52.48 9.544m-248.86-3.605-1.08.275-.073 1.261c-.089 1.543.451 1.888 2.459 1.57l1.215-.193.063-1.199c.094-1.821-.532-2.236-2.584-1.714m156.363 2.73c.495.052 1.305.052 1.8 0 .496-.051.09-.094-.9-.094s-1.395.043-.9.094m3.728.002c.564.05 1.429.05 1.92-.002.492-.052.03-.093-1.026-.092-1.057.001-1.459.043-.894.094m7.921-.002c.431.053 1.079.052 1.44-.003s.008-.098-.784-.097c-.793.001-1.088.046-.656.1m-168.419 7.141-.768.334.141 1.757c.077.967.188 1.812.247 1.878.292.328 3.601.102 3.974-.271 1.862-1.862-1.013-4.821-3.594-3.698m214.813.608c0 .448.064.512.288.288.224-.224.224-.352 0-.576-.224-.225-.288-.16-.288.288" fill="#040404"/><path d="M13.926 67.412c-2.615.201-2.429-1.01-2.454 15.975-.024 16.633-.125 15.703 1.922 17.694.623.605 1.46 1.474 1.861 1.93a22.042 22.042 0 0 0 1.56 1.573c.725.648 1.506 1.434 2.873 2.893.198.211.84.919 1.426 1.574.587.655 1.505 1.425 2.041 1.712l.975.522 23.114.068c24.09.07 24.603.051 25.258-.963.454-.702.392-10.98-.072-11.951l-.288-.6-19.204-.12c-17.983-.112-20.045-.189-20.045-.749 0-.119-1.027-1.21-2.283-2.424-2.786-2.693-2.756-2.6-2.758-8.406-.001-4.413.009-4.503.545-4.854.471-.309 3.042-.363 18.526-.396 22.353-.048 19.363.553 24.894-5.002 3.308-3.322 4.47-4.348 4.86-4.293l.514.074.12 19.087c.128 20.308.105 19.953 1.275 20.386 1.113.412 47.353.093 48.175-.333.714-.369 5.748-5.225 5.795-5.59.012-.097.688-.771 1.5-1.498a54.707 54.707 0 0 0 2.799-2.723l1.32-1.403.12-10.482c.133-11.622.137-11.645 1.672-10.011l.573.61h9.934c8.435 0 10.041.055 10.642.366l.709.367.004 2.334c.002 1.284 0 7.817-.004 14.518-.009 13.252.044 13.841 1.248 13.89 2.37.097 13.687-.006 14.072-.128.957-.304 1.006-1.086 1.01-15.957.002-7.87.083-14.429.18-14.574.529-.792 1.23-.841 11.47-.801 7.291.03 10.291-.036 10.525-.231.578-.479.642 1.183.623 15.981-.021 15.75-.07 15.228 1.462 15.534 1.875.375 123.631.168 124.364-.211.631-.326.798-.326 1.579 0 .936.391 14.342.554 14.868.181 1.326-.942 1.275-.36 1.296-14.893.016-11.807.131-14.891.571-15.33.136-.137 25.71-.116 26.155.022.165.051.598.157.961.237.491.108.66.289.66.707 0 .84-1.189.924-14.112.997-8.515.048-11.439.137-11.704.357-.889.738-.207 1.89 2.767 4.672 1.122 1.051 2.199 2.154 2.393 2.452.193.298.824.949 1.402 1.448.876.756 3.968 3.836 8.02 7.99a88.649 88.649 0 0 0 2.245 2.175c.784.734 2.399 2.395 3.587 3.692 2.376 2.592 3.261 3.493 7.444 7.578 1.555 1.519 3.071 3.146 3.368 3.616.769 1.216 1.714 1.426 6.406 1.426 5.093 0 4.65.606 4.557-6.237l-.073-5.398-3.408-3.455c-1.874-1.9-3.921-3.979-4.549-4.619-.753-.769-1.14-1.37-1.14-1.772v-.608h4.028c3.257 0 4.131-.071 4.562-.373l.534-.374V81.648c0-12.399-.037-13.672-.398-13.972-.484-.401-58.817-.398-60.439.004-.617.153-1.144.147-1.56-.017-.691-.272-58.946-.351-59.798-.081-1.043.332-1.082.984-1.135 19.165-.049 16.91-.135 18.895-.819 18.895-.121 0-.221-.089-.221-.199 0-.11-.459-.536-1.02-.947-.562-.411-2.263-1.941-3.782-3.401-3.922-3.769-1.242-3.376-23.017-3.376h-18.743l-.308-.54c-.244-.427-.291-3.237-.224-13.385.099-14.936.067-15.423-1.03-15.944-1.097-.52-13.4-.567-15.031-.057-.932.291-1.157.293-1.547.008-.5-.366-59.268-.514-59.812-.15-.529.353-.816 1.254-.816 2.561 0 1.266-.032 1.337-.6 1.337-.579 0-.601-.056-.601-1.561 0-2.614.285-2.521-7.695-2.521-8.081 0-8.148.016-8.157 1.987-.003.69-.002 5.252.001 10.138.009 11.968.046 11.788-3.103 15.126-.873.924-1.759 1.951-1.969 2.281l-.383.6-11.036.069c-7.043.044-11.268-.019-11.676-.174l-.64-.243V83.013c0-15.705.06-15.091-1.5-15.445-.704-.16-76.21-.311-78.211-.156m374.429 1.059c.296.272.335 26.232.041 26.527-.11.11-2.234.26-4.721.333-3.362.099-4.634.22-4.962.472-.243.187-.477.36-.519.385-.231.136.727 1.476 1.257 1.76.342.183.621.429.621.547 0 .118 1.956 2.148 4.347 4.511l4.346 4.297-.085 4.912c-.099 5.753.155 5.291-2.965 5.393-3.189.105-4.744-.221-6.123-1.283-1.382-1.064-1.321-1.008-2.905-2.67-.74-.776-1.739-1.734-2.221-2.129s-.877-.794-.877-.885c0-.092-1.485-1.677-3.301-3.524a989.613 989.613 0 0 1-4.768-4.876 152.054 152.054 0 0 0-3.302-3.286c-1.008-.971-1.836-1.836-1.839-1.921-.003-.085-.395-.479-.872-.876-.477-.396-1.042-.917-1.256-1.158-.213-.241-2.287-2.348-4.607-4.682-4.101-4.124-5.759-6.11-5.4-6.469.096-.097 5.677-.212 12.401-.256 12.169-.081 12.228-.083 12.585-.594.402-.574.472-2.016.125-2.567-.447-.707-28.882-.753-29.586-.048-.246.246-.337 3.352-.432 14.686-.066 7.906-.196 14.451-.29 14.545-.409.408-2.602.569-7.896.579-7.16.013-6.552.471-6.627-4.993-.031-2.2-.073-4.556-.095-5.234-.021-.679.024-1.336.101-1.46.145-.235.196-13.108.09-22.812-.037-3.386.039-5.933.193-6.483l.254-.905 28.444-.12c28.89-.122 30.419-.108 30.844.284m-295.984.497c.392.717.432 1.906.5 14.765.083 15.556-.075 14.232 1.727 14.553 1.353.24 20.658.205 21.907-.04 1.315-.259 4.888-3.675 6.201-5.929l.699-1.201.016-10.084c.016-9.436.138-12.113.571-12.547.097-.098 3.128-.203 6.735-.234l6.558-.056.178.657c.219.81.136 29.594-.087 29.97-.227.383-6.255 6.76-7.106 7.516-.386.344-1.423 1.289-2.306 2.102-2.084 1.919-.306 1.806-27.203 1.717-21.504-.071-22.057-.084-22.389-.539-.287-.393-.341-3.406-.341-19.238 0-16.155-.05-18.893-.36-19.636l-.361-.863-1.178.695c-1.154.68-2.244 1.718-7.104 6.763l-2.401 2.493-19.448.125c-10.696.069-19.466.15-19.488.18-.913 1.244-.959 1.564-.94 6.538l.02 4.922.767 1.08c.734 1.033 4.602 4.946 5.355 5.417.212.133 8.219.275 19.488.345 10.52.066 19.217.21 19.327.319.297.298.392 10.534.101 10.966-.302.448-46.06.694-47.575.255-1.169-.338-11.056-10.189-11.54-11.497-.136-.366-.322-24.85-.222-29.017.033-1.367-2.77-1.278 40.12-1.278h39.352l.427.781m107.336-.361c.367.894.201 9.664-.187 9.91-.212.134-4.565.229-10.579.231-8.438.003-10.299.063-10.684.344-.45.329-.47.843-.586 15.354-.095 11.862-.185 15.08-.432 15.326-.322.323-12.268.611-13.414.323-1.337-.335-1.28.353-1.28-15.488 0-14.016-.018-14.625-.459-15.169l-.458-.566-10.446-.12c-5.746-.067-10.536-.211-10.646-.32-.393-.393-.243-9.755.16-10.01.757-.478 58.814-.296 59.011.185m16.064-.231c.729.464.796 1.685.796 14.683 0 7.238.069 13.508.155 13.935.35 1.754-.601 1.675 20.201 1.683 21.526.008 19.104-.329 22.625 3.15 4.206 4.156 4.97 4.811 5.843 5.008 1.404.316 1.36.917 1.42-19.44.031-10.234.143-18.743.25-18.908.154-.237 6.354-.3 29.673-.3h29.479l.279.612c.359.787.385 10.026.03 10.689-.243.453-.74.464-21.789.467-24.405.004-22.511-.122-22.955 1.526-.635 2.36-.407 15.603.281 16.291l.547.547 21.422.06 21.804.06c.959.001 1.492 9.957.598 11.179-.4.547-121.1.876-123.108.335-1.442-.388-1.415-.071-1.434-16.411a8291.15 8291.15 0 0 0-.038-19.352c-.017-3.76.043-4.562.392-5.222l.411-.781 6.417.004c3.529.002 6.544.085 6.701.185m-76.641 5.002c.358.358.357.423-.011.83-.22.243-.484.798-.587 1.232-.153.646-.192.493-.212-.83-.025-1.665.134-1.908.81-1.232m-.358 3.873c.002.165-.105.3-.237.3s-.238-.297-.236-.66c.004-.676.464-.325.473.36m164.707 3.676c10.367-.008 19.966-.046 21.329-.085 2.04-.058 2.513-.005 2.673.3.228.437.203 16.106-.027 16.457-.19.291-44.48.101-44.772-.191-.144-.144-.219-11.488-.103-15.42.016-.563 1.169-1.365 1.692-1.176.197.071 8.84.123 19.208.115m-5.448 2.142c-14.747.138-13.644-.024-14.035 2.063-.299 1.59-.301 1.709-.113 4.904.313 5.316-.839 4.804 10.792 4.791 12.377-.013 12.037.079 15.049-4.054.62-.851 1.159-1.448 3.289-3.649 2.659-2.748 2.19-4.507-1.128-4.229-.33.028-6.565.106-13.854.174m15.054 1.502c0 .852-.237 1.312-1.215 2.359-.417.447-.852 1.058-.966 1.359-.114.301-.373.547-.574.547-.201 0-.366.085-.366.189 0 .292-3.631 3.972-4.442 4.502-.979.64-20.133.743-20.533.11-.376-.594-.299-9.012.086-9.331.311-.258 6.946-.383 22.188-.417l5.822-.013v.695M11.182 118.985c-.605.604-.552 7.313.061 7.869.729.659 377.639.608 378.454-.052.804-.651.754-7.083-.06-7.774-.726-.617-377.839-.66-378.455-.043m377.786.229.708.366v6.722l-.616.235c-.976.371-377.116.317-377.487-.054-.245-.245-.459-6.986-.228-7.215.033-.033 82.821-.114 183.973-.18 101.153-.067 185.945-.148 188.427-.181 3.663-.048 4.648.01 5.223.307m-376.71 16.118c-.415.528-.46 17.512-.048 18.244.332.589 3.313 3.648 5.049 5.182l1.829 1.615 15.417.005c15.001.006 15.425-.006 15.667-.458.337-.63.337-14.528 0-15.158-.239-.445-.59-.464-8.66-.464-10.184 0-10.326.038-8.319 2.232a64.6 64.6 0 0 1 1.741 1.987c2.258 2.732 2.276 2.743 4.354 2.747 1.725.004 2.791.254 2.466.58-.104.103-13.466.222-16.784.149-.737-.016-1.003-.217-2.161-1.631l-1.32-1.612-.08-2.166c-.043-1.191.035-2.463.174-2.825l.253-.659 10.42.003c11.138.002 12.052-.081 12.519-1.146.13-.297.336-.54.457-.54.122 0 1.064-.865 2.096-1.921 2.267-2.323 1.861-2.322 4.302-.005 1.111 1.053 2.157 1.968 2.325 2.033a.517.517 0 0 1 .307.447c0 .181.27.452.6.602.33.151.6.416.6.589s1.216 1.497 2.701 2.941l2.701 2.625.12 6.169c.066 3.393.21 6.258.321 6.368.261.261 9.422.261 9.683 0 .11-.11.254-3.027.321-6.482l.12-6.284 3.054-3.001c1.68-1.65 3.192-3.121 3.361-3.267.169-.147.641-.633 1.048-1.081.935-1.026 2.512-2.374 2.778-2.374.112 0 .203 4.584.203 10.188 0 6.039.095 10.439.234 10.804l.234.616h4.421c5.81 0 5.442.294 5.459-4.363.016-4.307-.007-4.291 2.618-1.85 1.119 1.04 2.17 1.891 2.337 1.891a.31.31 0 0 1 .303.316c0 .431 1.632 1.846 2.124 1.842.643-.006 2.109-1.265 6.637-5.697l1.04-1.018.143 1.979c.078 1.088.114 2.907.081 4.042-.088 2.982-.303 2.858 4.965 2.858 6.006 0 5.298 1.67 5.298-12.499v-11.818l-.619-.463c-.862-.643-4.857-.846-6.136-.312-.558.233-2.637 2.145-5.705 5.244-5.713 5.773-5.63 5.726-7.27 4.145l-.771-.743c-.299-.289-3.203-3.332-4.267-4.471-.418-.446-1.552-1.568-2.521-2.492l-1.762-1.681-8.095-.072-8.095-.072-1.831 1.753c-1.007.964-2.42 2.324-3.139 3.022-.81.786-1.418 1.201-1.598 1.09-.47-.287-2.58-2.279-3.513-3.315-2.78-3.088.1-2.791-27.601-2.844l-22.178-.042-.408.518m124.237-.06c-.529.168-1.486.674-2.127 1.124-.641.45-1.452.989-1.801 1.196-2.32 1.38-1.745 8.24.793 9.444 1.09.518 1.185 1.403.193 1.803a17.78 17.78 0 0 0-1.62.805l-.961.54-.066 3.697c-.075 4.161-.034 4.274 1.948 5.386.506.284 1.243.696 1.637.915a7.89 7.89 0 0 1 1.205.84c.444.402.976.443 5.74.443h5.251l.726-.796c.4-.437.726-.893.726-1.014 0-.12.307-.377.681-.571.754-.39.817-.349 2.412 1.54l.71.841h3.733c4.464 0 5.029-.226 3.904-1.563-.35-.415-.635-.855-.635-.977s-.155-.222-.344-.222c-.19 0-.406-.189-.48-.42-.075-.231-.69-1.014-1.368-1.74a54.265 54.265 0 0 1-2.163-2.485l-.932-1.165 1.571-1.837c3.697-4.325 3.664-4.439-1.329-4.555l-3.348-.079-.608.656c-.533.576-.681.623-1.206.384-.846-.386-.777-1.228.162-1.966 3.039-2.389 3.461-6.531.813-7.973-.31-.17-1.142-.703-1.849-1.185-2.047-1.399-8.44-1.998-11.368-1.066m49.699.146c-8.979.069-16.353.15-16.386.18-.337.314-.009 25.283.337 25.629.528.528 7.92.448 8.57-.092.338-.281.397-.898.4-4.202.002-2.129.068-4.115.148-4.412l.145-.54h11.601c7.43 0 11.836-.09 12.256-.249 1.069-.407 1.171-.069 1.249 4.162.089 4.865-.326 4.49 4.978 4.49 5.474 0 4.914 1.009 4.914-8.842 0-6.208.066-7.966.3-7.972 3.574-.092 12.354.081 12.52.246.125.126.262 3.688.312 8.096.049 4.33.136 8.007.193 8.172.157.448 8.598.428 8.971-.021.18-.217.287-2.911.33-8.343l.063-8.023 5.816-.064c5.317-.059 5.836-.101 6.047-.496.396-.74.393-7.252-.003-7.503-.314-.199-31.806-.396-33.109-.208-.33.048-1.032.086-1.56.083l-4.922-.025c-2.179-.012-4.394-.007-4.922.011-.528.018-1.177-.02-1.441-.084s-7.827-.061-16.807.007m-127.076.215c.701.163 1.419.758 3.331 2.761 1.341 1.404 2.748 2.774 3.127 3.044l.69.491 3.216-3.137 3.216-3.138h15.706l5.414 5.402c3.257 3.25 5.597 5.403 5.871 5.403.275 0 2.613-2.149 5.859-5.384 6.033-6.011 5.612-5.752 9.049-5.564 2.777.152 2.538-.897 2.56 11.23.028 14.831.603 13.36-5.152 13.175l-4.082-.132-.065-4.117c-.086-5.391-.055-5.363-2.99-2.597-1.225 1.154-2.659 2.554-3.187 3.112-.882.929-1.761 1.561-2.175 1.561-.091 0-.669-.513-1.284-1.14-1.959-1.998-5.317-4.976-5.822-5.163-.852-.315-.923.005-.923 4.162 0 4.008-.009 4.077-.541 4.265-.725.256-8.077.159-8.346-.11-.117-.118-.246-4.989-.285-10.826-.083-12.176-.028-11.874-1.818-10.094-.624.621-2.952 2.926-5.173 5.123-4.861 4.807-4.486 3.886-4.486 11.012 0 5.105-.048 5.859-.379 5.987-.653.25-8.026.161-8.52-.103-.438-.235-.464-.556-.464-5.704 0-3-.101-5.807-.224-6.236-.206-.716-11.173-12.061-11.66-12.061-.25 0-1.562.803-1.562.956 0 .073-.729.895-1.62 1.827-.892.931-1.809 1.928-2.039 2.216-.486.608.357.568-13.569.639-5.052.026-9.266.127-9.364.226-.098.098-.179 1.687-.179 3.53v3.352l1.494 1.43 1.493 1.43h8.862c7.632 0 8.903-.051 9.164-.365.611-.737-.342-1.316-2.166-1.316-2.043 0-2.822-.283-3.72-1.352a69.332 69.332 0 0 0-1.756-1.973c-1.542-1.663-1.86-2.349-1.24-2.68.827-.442 16.036-.216 16.326.243.501.794.288 14.6-.229 14.878-.306.163-5.512.248-15.234.248H19.473l-.597-.54c-1.539-1.393-2.348-2.183-4.41-4.309l-2.221-2.289v-8.508c0-6.297.075-8.582.288-8.796.346-.345 45.108-.412 46.585-.069m87.581.539c.594.35 1.34.863 1.657 1.14.317.277.656.503.752.503.87 0 1.672 1.593 1.672 3.321v1.79l-1.68 1.611c-1.848 1.773-2.005 2.679-.577 3.329.805.367.834.361 1.634-.327.659-.567.856-.6 3.522-.6 3.869 0 4.19.281 2.468 2.161-2.746 2.996-3.199 4.052-2.185 5.097.297.306 1.176 1.29 1.954 2.186.778.897 1.698 1.921 2.044 2.275 2.104 2.154 1.964 2.308-2.182 2.405l-3.368.079-1.475-1.577-1.475-1.577-.781.501c-.429.276-.78.608-.78.738s-.38.606-.845 1.057l-.844.82h-9.413l-2.732-1.804-2.732-1.804-.024-1.017c-.118-5.175.019-5.961 1.146-6.556l1.679-.885c1.079-.57.79-2.339-.382-2.339-.122 0-.554-.28-.96-.622l-.739-.621v-3.323c0-3.787-.152-3.461 2.403-5.16 2.281-1.516 2.414-1.544 7.081-1.488 3.942.048 4.118.071 5.162.687M250 135.688c-.426.429-.438 23.982-.012 24.408.485.485 8.981.4 9.17-.092.08-.209.146-2.694.146-5.522v-5.142h.803c.498 0 .968.182 1.238.48.239.264.606.481.817.481.211.001.815.268 1.343.593.529.325 1.135.595 1.349.599.213.004.662.224.998.488.336.264.768.48.96.48.193 0 .612.206.931.457.32.251 1.024.576 1.565.722.541.146 1.107.413 1.257.594.15.18.757.464 1.348.629.592.166 1.076.378 1.076.472 0 .233 1.125.727 1.655.727.237 0 .627.217.866.481s.554.48.7.48c.145 0 .772.27 1.392.6.62.33 1.281.6 1.469.6.188 0 .465.149.616.331.151.181.758.465 1.35.631.592.166 1.076.39 1.076.499 0 .464 1.762.701 2.209.297.621-.563.674-23.57.055-24.19-.314-.314-1.077-.377-4.545-.377-5.396 0-4.922-.555-4.922 5.763 0 5.599-.13 5.983-1.648 4.866-.348-.256-.957-.546-1.353-.644-.396-.098-.883-.318-1.081-.489-.198-.171-.792-.449-1.32-.617-.528-.168-1.015-.375-1.081-.461-.193-.251-3.727-1.935-4.061-1.935-.168 0-.579-.216-.915-.48-.336-.265-.791-.481-1.012-.481-.22 0-.767-.27-1.215-.6-.447-.33-.981-.601-1.187-.602-.205-.001-.697-.216-1.093-.478-.397-.263-.889-.478-1.094-.479-.206-.001-.74-.272-1.187-.602-.448-.33-1.046-.6-1.33-.6-.284 0-.703-.206-.932-.459-.228-.252-.704-.53-1.057-.619-.354-.088-.805-.304-1.003-.481-.544-.485-1.985-.687-2.341-.328m75.536 1.043c-.707.724-1.409 1.454-1.559 1.621-.151.167-.662.628-1.136 1.024-.474.396-.864.801-.867.9-.003.099-.437.625-.966 1.169l-.96.99v8.574l.612.401.611.401-.611.638c-.7.73-.965 7.006-.324 7.647.217.217 3.619.288 13.837.288h13.548l1.076-1.02a61.733 61.733 0 0 0 1.949-1.946 300.29 300.29 0 0 1 2.49-2.577c1.388-1.42 1.597-1.746 1.487-2.316-.07-.366-.025-1.096.101-1.625.127-.528.241-.738.254-.466.013.272.176.702.362.956.29.397.29.554 0 1.115-.443.855-.484 7.157-.05 7.591.217.217 3.599.288 13.746.288h13.458l1.323-1.26c.728-.694 2.218-2.203 3.311-3.354l1.987-2.094-.106-4.749c-.058-2.612-.113-4.911-.121-5.109-.008-.199.045-2.012.118-4.031.099-2.696.057-3.763-.158-4.021-.249-.301-2.242-.352-13.869-.352h-13.578l-1.939 2.014a460.04 460.04 0 0 0-3.199 3.357l-1.261 1.343-.024 1.745c-.015 1.094-.086 1.523-.19 1.15-.12-.431-.427-.67-1.116-.865l-.951-.27.778-.174c1.089-.243 1.098-.28 1.046-4.192-.038-2.937-.11-3.556-.44-3.808-.305-.232-3.465-.3-13.889-.3h-13.493l-1.287 1.317m-122.309-.756c.627.457.612 5.566-.019 6.633l-.415.703-11.628-.017c-11.75-.017-12.389.027-11.903.812.065.106 5.443.192 11.951.192 14.076 0 12.609-.452 12.408 3.825l-.14 2.985-.72.201c-.396.111-5.842.184-12.103.162-13.617-.047-12.027-.723-12.027 5.107v4.265l-.78.142c-.429.078-2.293.11-4.142.071l-3.361-.072-.063-12.365c-.058-11.411-.031-12.388.346-12.665.62-.454 31.974-.435 32.596.021m9.994-.072c.727.389.727 23.604 0 23.993-.609.326-7.109.324-7.719-.003-.682-.365-.71-23.589-.028-23.986.545-.318 7.154-.322 7.747-.004m35.47.039c.357.357.399 5.634.051 6.547l-.237.624-5.688-.025-5.687-.024-.303.557c-.224.413-.308 2.57-.323 8.353-.011 4.288-.106 7.883-.213 7.989-.106.106-2.021.163-4.256.127l-4.064-.066-.12-8.163c-.066-4.49-.202-8.326-.302-8.524-.156-.308-1.013-.35-5.9-.292-7.389.088-7.003.302-7.003-3.88v-2.938l.66-.261c.99-.391 32.995-.414 33.385-.024m34.967-.054.616.235-.004 11.47c-.004 12.559.021 12.345-1.364 11.851-1.187-.424-9.383-4.248-11.432-5.334-.239-.127-1.411-.66-2.603-1.185-1.193-.525-2.328-1.114-2.524-1.309-.195-.196-.596-.355-.89-.355-.294 0-.638-.104-.764-.23-.439-.438-4.118-2.128-4.811-2.209l-.698-.083-.065 5.384c-.042 3.478-.159 5.496-.33 5.702-.299.36-7.763.468-8.311.12-.238-.151-.289-2.701-.24-11.938.072-13.616-.25-12.445 2.994-10.897 1.925.918 3.061 1.451 7.752 3.638.859.4 2.858 1.349 4.442 2.109 5.171 2.48 6.038 2.881 6.225 2.881.101 0 .481.212.845.471.962.685 2.585 1.015 2.759.561.075-.193.135-2.643.135-5.445 0-3.642.082-5.177.288-5.383.357-.357 7.063-.402 7.98-.054m70.05.197c.678.678.576 5.691-.13 6.397l-.615.615h-10.68c-6.358 0-10.928.095-11.295.234-.838.319-.809.965.044.973.364.003 5.396.004 11.184.003 8.92-.002 10.63.053 11.224.361l.702.362v3.841c0 4.619.164 4.276-4.049 8.452l-2.846 2.821h-12.744c-7.699 0-12.987-.093-13.359-.234-.866-.329-.959-5.573-.119-6.752l.496-.697h11.243c10.055 0 11.258-.04 11.389-.382.304-.792-.188-.827-11.541-.814-8.318.01-11.504-.062-11.748-.265-.486-.403-.482-7.648.004-8.575.188-.357 1.739-2.029 3.449-3.716l3.108-3.067 12.986.066c10.236.052 13.052.132 13.297.377m34.744-.099c.412.497.474 6.275.072 6.679-.244.244-2.742.338-11.405.432-8.781.095-11.213.189-11.671.449-1.136.646.152.736 10.808.756 5.862.011 11.051.081 11.53.154 1.109.17 1.237.886 1.021 5.707l-.151 3.378-3.281 3.302-3.281 3.301-12.956-.004c-7.746-.002-13.1-.095-13.316-.231-.462-.292-.486-6.059-.029-6.914l.29-.542 11.176.015c11.559.016 12.602-.066 11.468-.895-.337-.246-2.809-.312-11.652-.312-7.038 0-11.278-.088-11.369-.235-.08-.129-.147-2.141-.149-4.471l-.004-4.237 2.531-2.552c1.392-1.403 2.707-2.802 2.922-3.109.214-.306.621-.65.904-.765.941-.379 26.223-.29 26.542.094m-101.971.389c-.356.198-.726.468-.823.6-.097.132-.178 5.078-.18 10.992l-.004 10.753.901.531c.495.293 1.008.494 1.14.448.132-.047 6.904-.08 15.049-.075 11.461.007 14.865-.057 15.055-.287.479-.577.381-6.68-.112-7.041-.342-.25-2.745-.315-11.55-.315h-11.119v-.961c0-1.103.154-1.218.48-.36l.228.601h11.012l1.223-1.179c.672-.649 1.224-1.27 1.226-1.381.002-.111.533-.779 1.179-1.486 1.328-1.451 1.574-2.047 1.06-2.561-.432-.432-15.544-.543-15.808-.116-.251.406-.6.266-.6-.24 0-.473.16-.48 10.909-.48 13.316 0 12.052.365 12.191-3.525.127-3.544.127-3.547-.731-3.902-1.109-.459-29.904-.475-30.726-.016m30.506.574c.601.456.628 5.677.032 6.171-.311.258-2.535.323-11.272.33-6.93.005-10.97.095-11.12.247-.493.504-.41 8.068.093 8.435.365.267 2.477.329 11.189.329 5.906 0 10.909.066 11.118.146.756.29.542 6.047-.236 6.343-1.201.456-29.643.302-30.157-.164-.665-.601-.683-21.334-.019-21.837.619-.47 29.752-.47 30.372 0m-177.919 3.687c-.312.761-.197 4.038.157 4.465.589.71 3.754.561 4.253-.201.512-.781.403-4.105-.146-4.452-.686-.434-4.07-.284-4.264.188m3.383.043c1.615.614.913 4.339-.817 4.339-2.215 0-2.409-.195-2.328-2.339l.07-1.863.96-.146c.528-.08 1.089-.161 1.245-.18.156-.018.548.066.87.189m61.827 3.551c-.233.281-.33.277-.635-.028-.306-.306-.311-.42-.034-.754.302-.364.351-.362.636.028.234.32.242.503.033.754m106.267.454c.641.246.443.675-1.329 2.885-2.764 3.449-2.111 3.193-8.172 3.203l-5.199.008-.263-.756c-.633-1.816-.205-5.02.705-5.273.737-.206 13.738-.267 14.258-.067m44.486 3.995c-.057.298-.104.054-.104-.54 0-.594.047-.837.104-.54.058.297.058.783 0 1.08m-215.915 1.893c-.328.531-.388 4.075-.082 4.815l.298.719 2.262-.082c1.939-.07 2.31-.15 2.592-.562.181-.264.481-.642.666-.84.832-.889.7-1.55-.588-2.97l-1.227-1.352h-1.877c-1.139 0-1.942.107-2.044.272m4.273.795c1.624 1.705 1.606 1.647.92 2.993-.519 1.017-.971 1.216-2.772 1.216-2.297 0-2.281.017-2.281-2.503 0-2.63-.071-2.533 1.832-2.533 1.412 0 1.566.055 2.301.827" fill="#5b1210"/><path d="M13.643 66.266c-1.384.125-2.303.69-2.888 1.776-.302.561-.282 29.382.021 30.671.223.945 1.414 2.608 1.868 2.608.154 0 .613.459 1.021 1.02 1.232 1.694 2.011 2.58 2.283 2.598.142.009.561.36.93.78 3.833 4.357 5.416 5.76 6.821 6.044 1.025.208 7.514.259 24.655.197 25.765-.095 24.587-.019 25.233-1.617.328-.812.45-9.081.164-11.113-.297-2.105.838-1.99-19.729-1.992-17.981-.002-19.546-.069-19.847-.854-.073-.19-.272-.346-.442-.346-.999 0-4.39-4.153-4.67-5.719-.549-3.078-.251-7.471.568-8.374.197-.217 4.778-.306 18.748-.364l18.488-.076 1.03-.546c.566-.301 1.127-.802 1.246-1.114.118-.312.652-.918 1.186-1.347.534-.429 1.034-.98 1.111-1.224.078-.244.269-.443.425-.443.157 0 1.084-.761 2.062-1.691 2.581-2.457 2.971-2.136 2.688 2.207-.377 5.786-.101 32.582.343 33.284.847 1.339 2.32 2.194 2.921 1.695.264-.22 5.805-.304 23.155-.351 16.825-.047 23.039-.138 23.692-.349 1.3-.42 3.267-2.129 5.687-4.942.528-.615 1.122-1.26 1.32-1.435.527-.465 2.165-2.08 3.048-3.005a23.05 23.05 0 0 1 1.561-1.467l.794-.664.036-9.606c.037-9.723.083-10.492.615-10.163.162.1 4.619.152 9.906.117 6.101-.042 9.844.024 10.25.179.981.375 1.496 2.405 1.317 5.194-.101 1.584-.2 16.851-.157 24.283.001.151.389.697.862 1.215l.86.941 1.721-.236c1.693-.232 2.335-.241 7.843-.099 2.382.061 5.325-.257 5.683-.614.647-.648.783-3.409.791-16.15.006-9.051.093-13.471.275-13.994l.266-.764 9.398.089c11.684.111 11.707.118 11.338 3.769-.073.726-.147 6.745-.163 13.374-.033 13.441-.02 13.546 1.663 13.887.353.071.981.22 1.396.33.415.109 1.496.151 2.401.092.905-.059 28.495-.144 61.31-.19 32.815-.045 60.15-.095 60.744-.111 1.975-.053 14.682.431 15.054.574.202.077.735-.087 1.185-.366 1.621-1.001 1.58-.633 1.595-14.328.012-11.058.054-12.399.406-12.833.382-.471.401-.456.723.564.395 1.255.887 1.888 1.466 1.888.235 0 .489.194.564.431.075.238.677.843 1.337 1.347.66.503 1.2 1.038 1.201 1.189.002.459 2.053 2.472 3.209 3.15.599.351 1.15.83 1.225 1.065.142.449 2.185 2.457 3.453 3.394.41.303.856.887.992 1.298.135.411.477.906.76 1.099.283.194.806.622 1.164.952.357.331.904.763 1.216.961.515.328 1.858 1.646 2.75 2.701.195.231.355.569.355.752 0 .354 1.479 1.589 1.902 1.589.139 0 .409.351.601.78.452 1.016 2.445 3.119 3.44 3.632.429.221.78.491.78.599 0 .318.997 1.315 2.206 2.204a6.14 6.14 0 0 1 1.785 2.119c.445.872.889 1.387 1.369 1.589.474.199.599.343.377.431-.184.073 2.111.141 5.101.151 6.896.025 6.42-.267 6.515 3.981l.07 3.121.052-3.417.052-3.416-.6-.151c-.731-.183-.741-.268-.093-.793.478-.386.503-.593.425-3.519-.045-1.71-.052-4.012-.016-5.116.048-1.448-.032-2.155-.286-2.542-.193-.295-.387-.843-.431-1.216-.057-.487-.318-.812-.92-1.142-.462-.254-1.063-.668-1.336-.919-.272-.252-.623-.458-.78-.458-.156 0-.285-.152-.285-.337 0-.186-.378-.79-.84-1.343-.462-.554-.84-1.101-.84-1.217 0-.116-.351-.301-.78-.412-.487-.127-.812-.377-.864-.668-.046-.255-.355-.753-.687-1.105l-.603-.641.687-.351c.405-.207.883-.279 1.166-.175.264.097 1.349.241 2.41.32l1.93.144 1.26-1.009 1.26-1.009-.028-1.44c-.016-.793-.022-6.717-.014-13.166.016-12.505 0-12.684-1.167-13.725-.837-.746-59.049-.885-60.051-.144-.612.452-.675.453-2.238.047-2.134-.555-59.382-.61-60.369-.058-1.23.688-1.24.819-1.24 16.558 0 9.79-.085 14.862-.258 15.357-.193.553-.181.879.046 1.296.3.552.411 3.679.14 3.95-.077.078-.46-.087-.852-.365-.391-.279-.825-.507-.965-.507s-.371-.216-.512-.48c-.141-.264-.363-.48-.494-.48-.13 0-.988-.756-1.907-1.681-.919-.924-1.774-1.681-1.899-1.681-.126 0-.294-.204-.374-.454-.289-.91-3.985-1.701-5.807-1.242-.804.202-5.511.261-17.038.213l-15.927-.066-.475-1.206c-.462-1.173-.468-1.53-.246-13.091.126-6.536.229-12.425.229-13.085 0-1.939-3.631-4.473-5.105-3.562-.423.261-8.471.35-9.127.101-.729-.277-2.297.084-2.485.573-.249.649-1.278.659-2.037.021l-.717-.604-29.362-.008-29.361-.007-.757.722c-.929.888-1.308.906-1.903.088-.531-.729-.676-.741-9.695-.823-4.906-.044-5.485.016-5.493.572-.002.157-.271.539-.598.849-.574.545-.686 1.098-.59 2.918.018.33.084 4.274.148 8.764.115 8.049.083 8.597-.684 11.734-.227.929-2.813 3.757-4.874 5.328l-.834.637-9.425.052c-5.184.028-9.74-.013-10.125-.092-1.417-.289-1.442-.555-1.405-15.325l.033-13.273-.729-.83c-1.094-1.245-1.675-1.314-10.905-1.286-4.613.014-8.603.024-8.867.022-.265-.002-13.122.015-28.572.038s-28.577-.016-29.172-.086c-.594-.071-1.693-.073-2.443-.005m78.494 1.302c1.56.354 1.5-.26 1.5 15.445v14.238l.64.243c.408.155 4.633.218 11.676.174l11.036-.069.383-.6c.21-.33 1.096-1.357 1.969-2.281 3.149-3.338 3.112-3.158 3.103-15.126-.003-4.886-.004-9.448-.001-10.138.009-1.971.076-1.987 8.157-1.987 7.98 0 7.695-.093 7.695 2.521 0 1.505.022 1.561.601 1.561.568 0 .6-.071.6-1.337 0-1.307.287-2.208.816-2.561.544-.364 59.312-.216 59.812.15.39.285.615.283 1.547-.008 1.631-.51 13.934-.463 15.031.057 1.097.521 1.129 1.008 1.03 15.944-.067 10.148-.02 12.958.224 13.385l.308.54h18.743c21.775 0 19.095-.393 23.017 3.376 1.519 1.46 3.22 2.99 3.782 3.401.561.411 1.02.837 1.02.947 0 .11.1.199.221.199.684 0 .77-1.985.819-18.895.053-18.181.092-18.833 1.135-19.165.852-.27 59.107-.191 59.798.081.416.164.943.17 1.56.017 1.622-.402 59.955-.405 60.439-.004.361.3.398 1.573.398 13.972v13.643l-.534.374c-.431.302-1.305.373-4.562.373h-4.028v.608c0 .402.387 1.003 1.14 1.772.628.64 2.675 2.719 4.549 4.619l3.408 3.455.073 5.398c.093 6.843.536 6.237-4.557 6.237-4.692 0-5.637-.21-6.406-1.426-.297-.47-1.813-2.097-3.368-3.616-4.183-4.085-5.068-4.986-7.444-7.578-1.188-1.297-2.803-2.958-3.587-3.692a88.649 88.649 0 0 1-2.245-2.175c-4.052-4.154-7.144-7.234-8.02-7.99-.578-.499-1.209-1.15-1.402-1.448-.194-.298-1.271-1.401-2.393-2.452-2.974-2.782-3.656-3.934-2.767-4.672.265-.22 3.189-.309 11.704-.357 12.923-.073 14.112-.157 14.112-.997 0-.418-.169-.599-.66-.707-.363-.08-.796-.186-.961-.237-.445-.138-26.019-.159-26.155-.022-.44.439-.555 3.523-.571 15.33-.021 14.533.03 13.951-1.296 14.893-.526.373-13.932.21-14.868-.181-.781-.326-.948-.326-1.579 0-.733.379-122.489.586-124.364.211-1.532-.306-1.483.216-1.462-15.534.019-14.798-.045-16.46-.623-15.981-.234.195-3.234.261-10.525.231-10.24-.04-10.941.009-11.47.801-.097.145-.178 6.704-.18 14.574-.004 14.871-.053 15.653-1.01 15.957-.385.122-11.702.225-14.072.128-1.204-.049-1.257-.638-1.248-13.89.004-6.701.006-13.234.004-14.518l-.004-2.334-.709-.367c-.601-.311-2.207-.366-10.642-.366h-9.934l-.573-.61c-1.535-1.634-1.539-1.611-1.672 10.011l-.12 10.482-1.32 1.403a54.707 54.707 0 0 1-2.799 2.723c-.812.727-1.488 1.401-1.5 1.498-.047.365-5.081 5.221-5.795 5.59-.822.426-47.062.745-48.175.333-1.17-.433-1.147-.078-1.275-20.386l-.12-19.087-.514-.074c-.39-.055-1.552.971-4.86 4.293-5.531 5.555-2.541 4.954-24.894 5.002-15.484.033-18.055.087-18.526.396-.536.351-.546.441-.545 4.854.002 5.806-.028 5.713 2.758 8.406 1.256 1.214 2.283 2.305 2.283 2.424 0 .56 2.062.637 20.045.749l19.204.12.288.6c.464.971.526 11.249.072 11.951-.655 1.014-1.168 1.033-25.258.963l-23.114-.068-.975-.522c-.536-.287-1.454-1.057-2.041-1.712a136.2 136.2 0 0 0-1.426-1.574c-1.367-1.459-2.148-2.245-2.873-2.893a22.042 22.042 0 0 1-1.56-1.573 42.279 42.279 0 0 0-1.861-1.93c-2.047-1.991-1.946-1.061-1.922-17.694.025-16.985-.161-15.774 2.454-15.975 2.001-.155 77.507-.004 78.211.156m46.183 7.042c.02 1.323.059 1.476.212.83.103-.434.367-.989.587-1.232.368-.407.369-.472.011-.83-.676-.676-.835-.433-.81 1.232m-.021 2.281c-.002.363.104.66.236.66.304 0 .304-.491 0-.96-.181-.281-.233-.215-.236.3m144.954 4.202c-.363.226-.666.629-.674.895-.116 3.932-.041 15.276.103 15.42.292.292 44.582.482 44.772.191.23-.351.255-16.02.027-16.457-.16-.305-.633-.358-2.673-.3-4.501.128-40.172.102-40.537-.03-.197-.071-.655.056-1.018.281m41.957.881c1.506.524 1.855 2.337 1.667 8.662-.168 5.677-.376 6.752-1.203 6.21-.49-.321-.612-.321-1.107.001-.46.299-.737.314-1.587.085-.794-.214-1.137-.21-1.497.015-.555.346-2.136.37-3.476.053-1.233-.293-7.777-.324-9.43-.045-.947.16-1.537.125-2.342-.14-.888-.292-1.253-.303-2.095-.058-1.641.476-11.961.63-12.288.183-.469-.641-1.284-.739-1.624-.194-.389.624-2 .673-3.013.092-.691-.397-.992-.361-1.787.209-.342.246-.491.184-.938-.384a11.805 11.805 0 0 0-1-1.112c-.486-.453-.391-.953.181-.953.182 0 .397.209.478.465.274.865 1.372.952 11.169.886l9.484-.064 1.44-.745c1.593-.824 3.242-2.221 3.242-2.747 0-.186.432-.761.96-1.277.528-.515.961-1.019.961-1.119 0-.236 2.882-3.082 3.122-3.082.369 0 .972-1.224 1.114-2.263.166-1.213-.392-2.19-1.55-2.708-1.013-.454 9.812-.425 11.119.03m-11.791 1.087c2.017.468 1.896 1.685-.406 4.063-2.13 2.201-2.669 2.798-3.289 3.649-3.012 4.133-2.672 4.041-15.049 4.054-11.631.013-10.479.525-10.792-4.791-.188-3.195-.186-3.314.113-4.904.391-2.087-.712-1.925 14.035-2.063 7.289-.068 13.524-.146 13.854-.174.33-.028 1.02.047 1.534.166M10.867 118.942c-.333.423-.42.82-.329 1.501l.124.926.141-1.131c.181-1.452.222-1.484 2.122-1.653l1.601-.142-1.603-.038c-1.429-.034-1.653.025-2.056.537m-.27 7.035c-.078 1.261.912 1.841 2.744 1.607l1.665-.213-1.675-.072c-1.778-.077-2.419-.406-2.601-1.334l-.1-.515-.033.527m379.274.606c-.535.555-.861.673-1.921.697l-1.275.029 1.01.243c1.194.287 2.577-.221 2.838-1.044.223-.702.083-.686-.652.075m-276.426.904c53.218.068 119.556.068 147.419 0 27.863-.068-15.678-.123-96.758-.123-130.867 0-136.555.014-50.661.123m222.149-.056c8.617.035 22.716.035 31.333 0 8.616-.035 1.566-.064-15.666-.064-17.233 0-24.283.029-15.667.064m-323.395 7.368c-.239.256-.434.598-.434.76a.441.441 0 0 1-.284.39c-.181.06-.213.261-.089.56.171.41.219.376.402-.284.382-1.373-.857-1.305 23.653-1.294 24.49.012 24.555.015 25.623 1.241 1.827 2.097 4.13 4.379 4.888 4.843.18.111.788-.304 1.598-1.09.719-.698 2.126-2.053 3.127-3.01l1.819-1.741 7.266-.004c5.037-.002 7.156-.079 6.907-.249-.307-.21-4.631-.291-9.124-.17-1.637.044-2.446 0-3.274-.18-1.137-.247-2.458.63-5.501 3.651l-2.652 2.634-2.45-2.46c-1.347-1.353-2.45-2.57-2.45-2.705 0-.134-.243-.319-.54-.409a3.218 3.218 0 0 1-.985-.556c-.756-.665-46.879-.594-47.5.073m98.88.015c-.198.198-.514.36-.702.36-.418 0-3.054 2.64-3.054 3.059 0 .166-.112.302-.248.302-.314 0-1.913 1.586-1.913 1.897 0 .128-.21.299-.468.38-.257.082-.531.348-.608.591-.077.243-.353.497-.613.565-.259.068-.472.279-.472.468s-.27.467-.6.618c-.33.15-.6.437-.6.638s-.16.366-.355.366c-.195 0-.524.258-.731.575-.802 1.224-2.148.63-4.035-1.782-.815-1.041-3.723-4.039-6.11-6.296-.967-.915-1.647-1.373-2.017-1.357-.51.022-.517.037-.078.18.465.151 2.983 2.425 4.528 4.089.955 1.028 3.934 4.152 4.263 4.471 2.537 2.454 2.037 2.666 8.041-3.402 3.068-3.099 5.147-5.011 5.705-5.244 1.279-.534 5.274-.331 6.136.312l.619.463v11.818c0 11.421-.016 11.829-.466 12.158-.371.272-.389.341-.089.341.877 0 .907-.405.922-12.624.014-11.057-.017-12.004-.395-12.226a5.699 5.699 0 0 1-.851-.66c-.602-.573-5.248-.621-5.809-.06m25.56-.029c-.152.182-.595.395-.987.474-.391.078-.899.361-1.128.629-.229.267-.539.487-.689.487-.149 0-.543.243-.875.54a8.632 8.632 0 0 1-1.356.949l-.752.409.001 3.553.002 3.552.827.901c.454.495.97.9 1.146.9.335 0 .992.662 1.215 1.227.073.183.141.041.152-.316.015-.516-.156-.732-.835-1.054-2.535-1.203-3.113-8.059-.796-9.444a53.098 53.098 0 0 0 1.92-1.254c1.781-1.211 2.688-1.401 6.692-1.401 4.006 0 4.915.19 6.687 1.401.707.482 1.539 1.015 1.849 1.185 2.648 1.442 2.226 5.584-.813 7.973-.939.738-1.008 1.58-.162 1.966.525.239.673.192 1.206-.384l.608-.656 3.348.079c4.993.116 5.026.23 1.329 4.555l-1.571 1.837.932 1.165c.513.64 1.486 1.758 2.163 2.485.678.726 1.293 1.509 1.368 1.74.074.231.29.42.48.42.189 0 .344.1.344.222s.285.561.633.975c.734.872.593 1.147-.823 1.613l-.891.293.84-.129a13.3 13.3 0 0 0 1.261-.247c.579-.162.539-1.208-.06-1.582-.264-.165-.48-.492-.48-.727s-.252-.542-.559-.683c-.308-.14-.689-.612-.847-1.048-.158-.437-.5-.85-.761-.919-.261-.068-.474-.296-.474-.506 0-.211-.112-.383-.248-.383-.285 0-1.656-1.508-2.049-2.255-.291-.553.33-1.491 2.483-3.747.567-.594 1.093-1.324 1.168-1.621.076-.297.239-.54.362-.54s-.003-.243-.279-.54c-.932-1.002-8.205-.932-8.527.082-.177.556-.784.526-1.151-.058-.253-.401.911-1.885 1.478-1.885 2.067 0 2.111-6.825.05-7.679-.402-.166-.73-.39-.73-.497 0-.107-.243-.272-.54-.366-.298-.094-.679-.367-.848-.607-.169-.239-.678-.505-1.132-.59-.453-.086-.95-.306-1.103-.49-.403-.486-8.675-.489-9.078-.004m113.338.459c-.401.401-.575.448-.803.221-.223-.223-4.069-.278-16.509-.234l-16.218.056 16.246.124c8.936.068 16.325.202 16.422.298.256.256.115 6.919-.157 7.428-.211.395-.73.437-6.047.496l-5.816.064-.063 8.023c-.044 5.512-.148 8.125-.334 8.349-.214.257-1.188.312-4.619.26l-4.348-.065-.128-4.442-.128-4.441-.052 4.476c-.062 5.325-.632 4.767 4.872 4.767 5.494 0 4.92 1.009 4.92-8.635 0-6.964.044-7.897.38-8.026.209-.08 2.854-.145 5.879-.145h5.499l.371-.888c.275-.658.36-1.648.331-3.838-.046-3.441.103-3.806 1.45-3.556.471.087 1.018.303 1.216.48.198.177.649.393 1.003.481.353.089.829.367 1.057.619.229.253.654.459.946.459.292 0 .815.224 1.163.498.348.273.631.408.629.3-.008-.466-.416-.765-1.261-.923-.496-.094-.982-.301-1.079-.461-.098-.16-.933-.641-1.858-1.069a85.57 85.57 0 0 1-2.067-.983c-.268-.142-.542-.048-.897.307m124.758-.07-13.62.12-1.32 1.321c-.727.726-1.323 1.455-1.326 1.62-.003.165-.149.3-.324.3-.175 0-.634.396-1.02.88-.387.484-.986 1.16-1.332 1.501-.346.341-.689.783-.761.981-.073.198-.141-1.122-.151-2.933-.018-3.025-.058-3.314-.494-3.547-.323-.173-4.896-.233-14.26-.189l-13.785.066-2.247 2.307c-4.767 4.896-4.489 4.323-4.51 9.289-.017 3.76.004 3.933.529 4.458.544.545.544.547.062.92-.813.629-.899 7.405-.1 7.965.501.351 1.976.391 14.187.391h13.628l.751-.66c.413-.363 1.781-1.71 3.04-2.994 2.702-2.754 2.7-2.755 2.7.29 0 3.702-1.452 3.376 14.738 3.306l13.473-.058-13.423-.064c-9.425-.045-13.519-.144-13.746-.331-.467-.388-.454-6.699.016-7.608.29-.561.29-.718 0-1.115-.186-.254-.349-.684-.362-.956-.013-.272-.127-.062-.254.466-.126.529-.171 1.259-.101 1.625.11.57-.099.896-1.487 2.316a300.29 300.29 0 0 0-2.49 2.577 61.733 61.733 0 0 1-1.949 1.946l-1.076 1.02h-13.548c-10.218 0-13.62-.071-13.837-.288-.641-.641-.376-6.917.324-7.647l.611-.638-.611-.401-.612-.401v-8.574l.96-.99c.529-.544.963-1.07.966-1.169.003-.099.393-.504.867-.9s.985-.857 1.136-1.024c.15-.167.852-.897 1.559-1.621l1.287-1.317h13.493c10.424 0 13.584.068 13.889.3.33.252.402.871.44 3.808.052 3.912.043 3.949-1.046 4.192l-.778.174.951.27c.689.195.996.434 1.116.865.104.373.175-.056.19-1.15l.024-1.745 1.261-1.343a460.04 460.04 0 0 1 3.199-3.357l1.939-2.014h13.578c10.932 0 13.629.062 13.84.316.151.182.295 1.682.34 3.542l.079 3.225-.011-3.453c-.01-3.196-.047-3.472-.491-3.721-.346-.194-4.289-.235-14.101-.149m-205.034.448c-.252.36-.29 2.92-.193 13.094.129 13.582.082 13.12 1.32 13.09.41-.01.393-.046-.113-.249-.326-.13-.676-.366-.777-.525-.159-.251-.288-25.287-.13-25.434.033-.03 7.407-.113 16.386-.183l16.327-.128-16.253-.056c-15.621-.055-16.265-.04-16.567.391m33.82-.132c.475.139 1.103.134 1.68-.013.851-.218.793-.235-.759-.223-1.43.011-1.567.047-.921.236m7.163-.081c2.377.092 4.588.097 4.914.011.326-.086-1.619-.161-4.322-.168l-4.913-.012 4.321.169m64.006.278c-.512.477-.546.68-.492 2.941.106 4.385.001 7.59-.248 7.59-.132 0-.241-.15-.241-.333 0-.335-1.603-.784-1.865-.522-.074.074.049.135.275.135.225 0 .717.227 1.093.505 1.573 1.164 1.698.81 1.698-4.826 0-6.318-.474-5.763 4.922-5.763 3.468 0 4.231.063 4.545.377.319.32.377.324.377.026 0-.89-9.122-1.008-10.064-.13m11.357.426c-.447.318-.821.696-.83.84-.009.144-.11.046-.223-.218-.156-.362-.206-.215-.206.6s.05.962.206.6c.119-.278.213 4.018.223 10.205l.017 10.685.718.677.718.678 14.948-.006c8.222-.003 15.188-.011 15.48-.018.851-.019 1.053-.786 1.127-4.284.07-3.297-.049-3.891-.773-3.891-.315 0-.305.052.055.315.493.361.591 6.464.112 7.041-.19.23-3.594.294-15.055.287-8.145-.005-14.917.028-15.049.075-.132.046-.645-.155-1.14-.448l-.901-.531.004-10.753c.002-5.914.083-10.86.18-10.992.608-.828 1.062-.852 16.154-.852 18.06.001 16.292-.443 16.131 4.047-.125 3.472-.077 3.365-1.644 3.655l-1.173.216 1.302-.105c1.695-.138 1.615.031 1.786-3.769.144-3.18.13-3.312-.395-3.923l-.544-.632-15.207-.039-15.208-.039-.813.579m-238.719 3.383c-1.032 1.056-2 1.921-2.153 1.921-.152 0-.277.108-.277.24 0 .517 1.419-.412 2.488-1.629.612-.698 1.113-1.36 1.113-1.473 0-1.035 4.248 1.487 4.306 2.557.009.162.286.363.616.446.331.083.601.299.601.479 0 .181.27.506.6.722.33.216.6.532.6.701 0 .169.277.562.616.873.338.311 1.526 1.475 2.638 2.588 1.113 1.113 2.088 1.958 2.168 1.879.08-.08-1.054-1.31-2.519-2.734-1.464-1.424-2.663-2.731-2.663-2.904 0-.173-.27-.438-.6-.589-.33-.15-.6-.421-.6-.602a.517.517 0 0 0-.307-.447c-.168-.065-1.214-.98-2.325-2.033-2.441-2.317-2.035-2.318-4.302.005m210.579-.746c.354.118.891.389 1.194.601.817.572 1.343.476.599-.11-.346-.272-1.036-.542-1.533-.6-.782-.092-.817-.077-.26.109m-177.356.806a21.815 21.815 0 0 0-1.659 1.594c-.407.448-.879.934-1.048 1.081-1.636 1.419-6.209 6.167-5.881 6.106.234-.044.533-.323.663-.619.13-.297.346-.54.48-.542.331-.003 1.804-1.541 1.804-1.883a.28.28 0 0 1 .281-.275c.155 0 .747-.486 1.317-1.08.569-.595 1.145-1.081 1.279-1.081.134 0 .244-.088.244-.196 0-.333 3.174-3.405 3.518-3.405.178 0 .324-.108.324-.24 0-.418-.377-.264-1.322.54m-68.731.9c0 .462.05.651.11.42a1.95 1.95 0 0 0 0-.84c-.06-.231-.11-.042-.11.42m249.404-.12c.448.33.982.594 1.188.585.257-.01.221-.077-.115-.213a2.434 2.434 0 0 1-.81-.585c-.177-.213-.491-.387-.699-.387-.227 0-.052.239.436.6m-120.886.334c-.612.094-.984.286-1.031.534-.067.349.048.357 1.121.078 1.225-.318 2.173-.229 2.485.234.108.158.178.094.181-.165.003-.41-.915-.932-1.513-.861-.156.019-.716.1-1.243.18m123.113.747c.336.264.749.48.918.48.181 0 .095-.198-.208-.48-.284-.265-.697-.481-.918-.481-.307 0-.258.114.208.481m-181.715 6.002c0 3.235.034 4.559.076 2.941a137.31 137.31 0 0 0 0-5.882c-.042-1.618-.076-.294-.076 2.941m-69.865.486.014 6.128 2.761 2.709c3.235 3.175 3.321 3.252 4.006 3.609.559.291 30.643.414 31.388.128a.617.617 0 0 0 .373-.541c-.007-.35-.035-.347-.252.026-.229.393-1.231.42-15.633.42H19.139l-1.283-1.097c-1.451-1.239-2.5-2.251-4.411-4.256l-1.32-1.385-.134-5.935-.135-5.934.015 6.128m254.516-5.175c.924.457 1.802.934 1.95 1.061.149.126.717.363 1.264.527.546.164 1.113.442 1.26.619.402.485.741.389.462-.131-.133-.249-.629-.525-1.102-.614-.473-.089-1.07-.371-1.327-.628-.257-.257-.729-.467-1.05-.467-.32 0-.728-.145-.905-.322-.475-.475-1.301-.878-1.797-.878-.24.001.32.375 1.245.833m-222.062-.235c-.734.556-1.925.62-12.492.672-6.451.032-10.093.136-10.144.29-.184.55 21.044.195 22.189-.37.561-.277 1.02-.604 1.02-.727 0-.284-.028-.278-.573.135m344.625.602c-.039.33-.035.763.008.961.042.198.145 2.413.228 4.922l.15 4.561.029-4.321c.026-3.896-.232-7.697-.415-6.123m-185.341.351c-.277.334-.272.448.034.754.527.528 1.054-.107.602-.726-.285-.39-.334-.392-.636-.028m-60.57.325c-.145.556-2.188.903-3.155.535-.418-.159-.628-.158-.628.002 0 .983 3.436.966 3.844-.02.166-.4.247-.783.18-.85-.067-.067-.175.083-.241.333m71.605-.236c-.151.051-.238 3.008-.238 8.066 0 9.791.57 8.781-4.955 8.781-5.257 0-4.848.372-4.937-4.49-.078-4.231-.18-4.569-1.249-4.162-.42.159-4.835.249-12.284.249-7.852 0-11.629.08-11.629.248 0 .169 3.962.227 12.365.18l12.365-.068v3.752c0 3.197.058 3.801.397 4.082.608.505 9.611.477 9.932-.031.13-.206.23-3.539.234-7.803.004-4.094.073-7.686.152-7.983.159-.593 9.931-.852 11.811-.313.593.171.771.155.699-.06-.088-.265-11.959-.685-12.663-.448m80.194.821c0 .457.362.565.6.18.264-.427 15.376-.316 15.808.116.514.514.268 1.11-1.06 2.561-.646.707-1.177 1.375-1.179 1.486-.002.111-.554.732-1.226 1.381l-1.223 1.179h-11.012l-.228-.601c-.326-.858-.48-.743-.48.36 0 .756.089.96.42.957.36-.003.369-.038.06-.241-.244-.161.795-.227 3.241-.205 8.765.08 9.783-.157 10.648-2.473.131-.354.661-1.056 1.176-1.561 1.512-1.481 1.835-2.339 1.134-3.014-.787-.757-16.679-.877-16.679-.125m-273.383 1.86c0 1.255.041 1.768.09 1.141.049-.627.049-1.654 0-2.281-.049-.627-.09-.114-.09 1.14m10.766-1.872c-.591.591-.298 1.418.989 2.791.702.749 1.432 1.558 1.621 1.798.189.24.784.915 1.322 1.501l.98 1.065h1.913c1.154 0 2.027.112 2.198.284.157.156.364.204.462.107.371-.372-.601-.624-2.418-.628-2.078-.004-2.096-.015-4.354-2.747a64.6 64.6 0 0 0-1.741-1.987c-2.007-2.194-1.864-2.232 8.314-2.232 9.401 0 8.704-.15 8.935 1.92l.148 1.321.035-1.453c.052-2.156.639-2.028-9.328-2.028-6.515 0-8.863.074-9.076.288m195.206 3.073c0 .462.049.651.109.42a1.95 1.95 0 0 0 0-.84c-.06-.231-.109-.042-.109.42m127.5.72c0 .594.047.838.104.54a3.373 3.373 0 0 0 0-1.08c-.057-.297-.104-.054-.104.54m-333.318.626c0 .334 2.561 3.21 2.861 3.213.326.003-.281-.749-1.601-1.981-.297-.277-.54-.635-.54-.795 0-.16-.162-.353-.36-.429-.198-.076-.36-.08-.36-.008m110.205.454c-1.19.878-1.194.892-1.198 4.755-.004 4.013.19 4.697 1.486 5.224.435.177.926.508 1.092.735.165.227.644.489 1.065.581.421.093.934.363 1.14.601.211.242.85.49 1.456.563l1.08.131-.989-.292c-.545-.161-1.167-.442-1.384-.624-.216-.183-.707-.507-1.09-.721-3.864-2.153-3.647-1.771-3.566-6.291l.066-3.697.961-.537a33.51 33.51 0 0 1 1.44-.767c.444-.213.434-.231-.133-.245-.338-.009-.979.254-1.426.584m-60.453 5.523c-.062 6.22-.095 6.468-.893 6.667l-.48.12.48.024c1.081.055 1.093-.021 1.021-6.588l-.069-6.226-.059 6.003m-10.565.391c-.055 6.27.01 6.656 1.077 6.379.339-.088.316-.118-.108-.14-.297-.015-.563-.054-.59-.087-.027-.033-.112-2.762-.188-6.063l-.139-6.002-.052 5.913m199.468-5.615c.198.077.468.283.6.458.132.175.565.359.961.409.396.05.542.045.325-.011-.217-.055-.585-.311-.818-.567-.232-.257-.648-.459-.925-.448-.356.013-.398.06-.143.159M139.416 150.7c-.542.543-.089.715.922.352 1.054-.379 1.11-.374 2.186.196 3.291 1.747 1.685 4.716-2.161 3.995-.834-.157-.845-.173-.93-1.53l-.087-1.372-.045 1.473c-.052 1.682.049 1.762 2.236 1.762 1.992 0 3.241-.923 3.241-2.395 0-1.576-4.285-3.558-5.362-2.481m119.942 4.322c-.03 2.532-.12 4.773-.2 4.982-.189.492-8.685.577-9.17.092-.193-.193-.288-.201-.288-.026 0 .476.714.554 5.053.554 5.278 0 4.824.536 4.73-5.576l-.07-4.628-.055 4.602m3.594-4.222c.062.187.555.504 1.096.704.541.2 1.203.616 1.47.924.417.481.582.526 1.157.316.458-.167.531-.251.23-.264-.244-.01-.717-.235-1.053-.499-.336-.264-.772-.48-.97-.48-.198 0-.738-.235-1.202-.521-.584-.361-.807-.416-.728-.18m92.198 1.229c-.224.224-.288.16-.288-.288 0-.448.064-.513.288-.288.224.224.224.352 0 .576m-248.947.504c-1.621 1.633-5.453 5.212-5.843 5.457-.3.188-.284.227.096.23.474.003 2.065-1.464 2.065-1.906 0-.138.102-.252.228-.252.125 0 .519-.27.875-.6.356-.33.74-.6.853-.6.113 0 .205-.164.205-.365 0-.201.268-.488.595-.637.328-.149.656-.459.729-.689a.9.9 0 0 1 .568-.532c.24-.063.496-.345.57-.626.074-.282.117-.507.096-.5-.02.006-.487.466-1.037 1.02m-13.686-.122c-.189.117-.284 1.288-.297 3.642-.025 4.51.371 4.175-5.133 4.35l-4.374.138 4.642-.018c5.731-.023 5.325.299 5.304-4.204-.008-1.792-.007-3.398.002-3.57.009-.171.745.423 1.637 1.321.891.898 1.915 1.823 2.276 2.055.36.232.817.736 1.016 1.12.347.671 1.896 1.452 2.226 1.122.079-.079-.026-.144-.233-.144-.479 0-2.104-1.425-2.104-1.845a.312.312 0 0 0-.3-.318c-.279-.003-1.508-1.047-3.542-3.009-.483-.466-.96-.738-1.12-.64m86.649 4.282c-.056 4.271-.103 4.464-1.135 4.718-.381.093-.349.124.151.146 1.104.049 1.187-.31 1.109-4.806l-.071-4.17-.054 4.112m88.301-3.818c0 .392.578.77 1.441.943.437.087.994.358 1.238.601.243.244.685.436.982.428l.541-.015-.516-.209c-.284-.114-.585-.32-.67-.458-.085-.138-.61-.371-1.165-.519-.556-.148-1.2-.438-1.431-.644-.231-.207-.42-.264-.42-.127m-160.06 2.467c0 1.123.041 1.582.092 1.021.05-.562.05-1.48 0-2.041-.051-.561-.092-.102-.092 1.02m281.567-1.56c-.01.132-1.429 1.671-3.152 3.421-1.816 1.843-2.968 3.181-2.739 3.181.218 0 .452-.216.521-.48s.213-.48.32-.48c.24 0 1.91-1.555 1.91-1.778 0-.088.77-.899 1.711-1.803 1.028-.989 1.658-1.775 1.579-1.973-.072-.181-.139-.221-.15-.088m-116.585 1.651c.396.346.936.626 1.2.622l.481-.007-.481-.272c-.264-.15-.534-.348-.6-.441-.066-.093-.39-.25-.72-.35-.579-.175-.575-.159.12.448m2.618 1.23c.384.33.924.593 1.201.585.499-.015.499-.017.014-.214a2.42 2.42 0 0 1-.81-.585c-.176-.212-.497-.386-.712-.386-.279 0-.191.171.307.6m1.824.754c0 .285.837.791 1.32.798.374.005.307-.099-.306-.473-.84-.512-1.014-.568-1.014-.325m2.428 1.255c.315.247.951.516 1.413.598l.841.148-.721-.268c-.396-.148-.891-.417-1.099-.598-.208-.181-.52-.329-.693-.329-.172 0-.056.202.259.449m-171.903.683c-.051 1.189.379 1.289 5.184 1.209l4.267-.072-4.353-.054c-4.613-.057-4.741-.09-4.955-1.254-.094-.512-.115-.487-.143.171m41.434-.257c-.358.188-.651.435-.651.549 0 .337-1.282 1.698-1.6 1.698a.564.564 0 0 0-.435.23c-.084.136.156.127.588-.024.753-.263 1.687-1.243 1.687-1.771 0-1.063 2.141-.115 2.533 1.121.129.406 1.933 1.1 2.191.842.062-.062-.216-.185-.618-.273-.639-.14-1.931-1.309-1.952-1.765-.027-.56-1.111-.938-1.743-.607m132.843.518c0 .417.613.767 1.308.746l.732-.021-.78-.225c-.429-.124-.78-.331-.78-.459a.237.237 0 0 0-.24-.233c-.132 0-.24.086-.24.192m-213.266 2.138c.297.057.784.057 1.081 0 .297-.057.054-.104-.54-.104-.595 0-.838.047-.541.104" fill="#2e0505"/></g></svg>