<svg width="64" height="64" fill="none" xmlns="http://www.w3.org/2000/svg"><path d="M56.64 49.184c2.131-1.574 3.52-4.096 3.52-6.944a8.592 8.592 0 0 0-6.112-8.256l-4.653-1.427 2.106-10.022c4.493-2.08 7.86-6.17 8.934-11.124a3.847 3.847 0 0 0-.768-3.257A3.843 3.843 0 0 0 56.66 6.72h-.166c-1.728 0-3.187 1.216-3.54 2.957a8.305 8.305 0 0 1-6.45 6.47c-1.434.295-2.528 1.434-2.861 2.842a.961.961 0 0 0-.096.269l-2.279 10.816-19.635-6.01-1.824-4.544h1.043a4.113 4.113 0 0 0 4.11-4.109 4.146 4.146 0 0 0-3.252-4.025L10.874 9.069a5.24 5.24 0 0 0-4.429 1.056 5.26 5.26 0 0 0-1.965 4.109 5.288 5.288 0 0 0 5.287 5.286h.89l1.804 4.519a13.88 13.88 0 0 0-3.667 1.952C5.235 28.615 3.2 32.659 3.2 37.08c0 4.743 2.407 8.929 6.055 11.418C5.799 49.242 3.2 52.32 3.2 56c0 .704.576 1.28 1.28 1.28h55.04c.704 0 1.28-.576 1.28-1.28 0-2.963-1.69-5.536-4.16-6.816ZM47.027 18.65a10.87 10.87 0 0 0 8.436-8.461c.108-.531.53-.909 1.03-.909h.166c.55 0 .877.301 1.018.48.25.307.346.71.256 1.107a13.444 13.444 0 0 1-10.266 10.266 1.307 1.307 0 0 1-1.113-.256c-.18-.14-.474-.46-.474-.992 0-.602.397-1.12.947-1.235Zm-1.683 4.486a3.818 3.818 0 0 0 2.867.5c.154-.033.314-.084.468-.122l-1.741 8.294-3.213-.979 1.62-7.693ZM9.767 16.96a2.729 2.729 0 0 1-2.727-2.726c0-.826.371-1.6 1.011-2.119a2.722 2.722 0 0 1 1.71-.608c.191 0 .383.02.575.064l10.835 2.324c.71.147 1.23.787 1.23 1.516 0 .852-.698 1.55-1.55 1.55H9.767Zm8.825 6.413a13.45 13.45 0 0 0-3.622.051l-1.562-3.904h3.648l1.536 3.853ZM5.76 37.082c0-3.603 1.658-6.893 4.557-9.037 1.971-1.46 4.282-2.214 6.65-2.214 1.107 0 2.22.166 3.321.505L53.3 36.43A6.046 6.046 0 0 1 57.6 42.24a6.086 6.086 0 0 1-6.08 6.08H17c-6.196 0-11.239-5.043-11.239-11.238Zm.16 17.638a5.13 5.13 0 0 1 4.96-3.84h42.24a5.13 5.13 0 0 1 4.96 3.84H5.92Zm16.352-11.456 1.869 1.562.058.038c.025.02.057.039.09.058.038.025.076.045.114.064.032.019.064.032.09.045.051.019.096.032.147.044l.083.02a.96.96 0 0 0 .237.025h3.2c.704 0 1.28-.576 1.28-1.28 0-.704-.576-1.28-1.28-1.28h-2.739l-1.51-1.26a7.594 7.594 0 0 0 1.05-3.86 7.686 7.686 0 0 0-7.68-7.68 7.686 7.686 0 0 0-7.68 7.68 7.686 7.686 0 0 0 7.68 7.68 7.647 7.647 0 0 0 4.991-1.856ZM12.16 37.44a5.127 5.127 0 0 1 5.12-5.12 5.127 5.127 0 0 1 5.12 5.12c0 .781-.179 1.523-.499 2.189l-3.802-3.174a1.286 1.286 0 0 0-1.804.166 1.286 1.286 0 0 0 .166 1.805l3.802 3.168a5.063 5.063 0 0 1-2.983.966 5.127 5.127 0 0 1-5.12-5.12Zm21.12 6.4c0-.704.576-1.28 1.28-1.28h1.28c.704 0 1.28.576 1.28 1.28 0 .704-.576 1.28-1.28 1.28h-1.28c-.704 0-1.28-.576-1.28-1.28Zm7.68 0c0-.704.576-1.28 1.28-1.28h1.28c.704 0 1.28.576 1.28 1.28 0 .704-.576 1.28-1.28 1.28h-1.28c-.704 0-1.28-.576-1.28-1.28Zm7.68 0c0-.704.576-1.28 1.28-1.28h1.28c.704 0 1.28.576 1.28 1.28 0 .704-.576 1.28-1.28 1.28h-1.28c-.704 0-1.28-.576-1.28-1.28Z" fill="#F7931E"/></svg>